<svg width="61" height="61" viewBox="0 0 61 61" fill="none" xmlns="http://www.w3.org/2000/svg">
<g clip-path="url(#clip0)">
<path d="M9.15634 50.4221C9.56682 50.6483 10.681 50.901 10.876 50.2625L11.4451 48.2329H14.7183L15.2986 50.2611C15.3698 50.5259 15.5941 50.6576 15.9706 50.6576C16.4104 50.6576 17.2235 50.3779 17.2235 49.8343C17.2235 49.8138 17.2132 49.7631 17.1932 49.6816C17.1932 49.6816 14.2594 40.1374 14.245 40.0894C14.0881 39.5803 13.4277 39.4183 12.9614 39.4183C12.5295 39.4183 11.8459 39.5435 11.6937 40.0229L8.74215 49.6146C8.72167 49.7012 8.71143 49.7556 8.71143 49.7775C8.7105 50.0716 8.90131 50.2811 9.15634 50.4221ZM13.1941 41.9957L14.5233 46.6775H11.8817L13.1941 41.9957Z" fill="#3179CC"/>
<path d="M13.3057 36.4691H15.9268C16.5834 36.4691 17.1182 35.9339 17.1182 35.2777C17.1182 34.621 16.5834 34.0863 15.9268 34.0863H13.3057C12.6481 34.0863 12.1143 34.621 12.1143 35.2777C12.1143 35.9339 12.6481 36.4691 13.3057 36.4691Z" fill="#3179CC"/>
<path d="M20.6885 43.8591C21.3451 43.8591 21.8799 43.3244 21.8799 42.6677V40.0466C21.8799 39.3904 21.3451 38.8552 20.6885 38.8552C20.0323 38.8552 19.4971 39.3904 19.4971 40.0466V42.6677C19.4971 43.3244 20.0323 43.8591 20.6885 43.8591Z" fill="#3179CC"/>
<path d="M20.6885 36.4724C21.3451 36.4724 21.8799 35.9377 21.8799 35.281C21.8799 34.6248 21.3451 34.0896 20.6885 34.0896C20.0323 34.0896 19.4971 34.6248 19.4971 35.281C19.4971 35.9377 20.0323 36.4724 20.6885 36.4724Z" fill="#3179CC"/>
<path d="M60.8404 41.6471L48.2859 19.9025C47.9574 19.3324 47.2286 19.1374 46.6589 19.4665L26.6875 30.9966V6.19531C26.6875 5.53725 26.1542 5.00391 25.4961 5.00391H1.19141C0.53334 5.00391 0 5.53725 0 6.19531V54.7893C0 55.4474 0.53334 55.9807 1.19141 55.9807H25.4961C26.1542 55.9807 26.6875 55.4474 26.6875 54.7893V37.5065C26.6875 37.5065 36.9974 55.3636 37.0188 55.4004C37.3306 55.9407 38.092 56.1562 38.6458 55.8365L60.4043 43.2746C60.6779 43.1163 60.8776 42.8562 60.9595 42.5509C61.0414 42.2456 60.9981 41.9207 60.8404 41.6471ZM24.3047 53.5979H2.38281V31.6914H24.3047V53.5979ZM24.3047 29.2932H2.38281V7.38672H24.3047V29.2932ZM38.4866 53.1772L27.1236 33.4962L46.8181 22.1257L58.1811 41.8067L38.4866 53.1772Z" fill="#3179CC"/>
<path d="M47.75 39.8586C47.5378 39.8172 47.272 39.8888 46.9528 40.0727C46.3966 40.3938 46.2128 40.7489 46.4008 41.138C46.8615 42.0334 46.7545 42.8813 45.8493 43.404C44.8738 43.9675 44.0841 43.7255 43.4795 42.6789L41.2805 38.8701C40.676 37.8234 40.8528 37.0234 41.8102 36.471C42.4831 36.0824 43.2808 36.0722 43.8011 36.7139C43.8649 36.7926 43.9351 36.8885 44.0124 37.0011C44.2372 37.3692 44.6411 37.3846 45.2247 37.0476C45.8102 36.7097 45.9568 36.263 45.6092 35.6607C45.1573 34.878 44.4913 34.4251 43.6117 34.3018C42.7326 34.1789 41.8139 34.3935 40.8566 34.9464C40.0738 35.3983 39.4227 36.0624 39.0671 36.9015C38.6455 37.8965 38.9871 39.0037 39.5023 39.8963C39.5023 39.8963 41.6994 43.7013 41.7017 43.7055C42.7898 45.5904 44.7398 46.12 46.6521 45.0156C47.6183 44.4576 48.2628 43.7581 48.5854 42.9167C48.9079 42.0748 48.8329 41.2445 48.3601 40.4254C48.1656 40.089 47.9622 39.9 47.75 39.8586Z" fill="#3179CC"/>
<path d="M46.8974 32.2015C46.8974 32.2015 48.2056 34.467 48.2079 34.4708C48.5281 35.0255 49.2834 35.2266 49.8354 34.9068C50.4036 34.5792 50.6005 33.849 50.2715 33.2794C50.2715 33.2794 48.9623 31.012 48.9609 31.0101C48.637 30.4493 47.8938 30.2496 47.3334 30.574C46.7717 30.8989 46.5716 31.6393 46.8974 32.2015Z" fill="#3179CC"/>
<path d="M39.8366 31.858L42.1073 30.5475C42.6755 30.2199 42.871 29.4897 42.5434 28.92C42.2213 28.3597 41.4739 28.161 40.9159 28.4839L38.6452 29.7945C38.077 30.1235 37.8815 30.8537 38.2092 31.422C38.5284 31.9763 39.2851 32.1773 39.8366 31.858Z" fill="#3179CC"/>
<path d="M10.5973 26.3529H13.836C14.6797 26.3529 15.49 26.0932 16.1122 25.5096C16.7535 24.9088 16.8913 23.9589 16.8913 23.1203V22.7996C16.8913 21.6729 16.4087 20.7416 15.3178 20.3139C16.1834 19.9379 16.6162 19.13 16.6162 17.8892C16.6162 16.1003 15.5928 15.2053 13.5456 15.2053C13.5456 15.2053 10.5996 15.2053 10.5973 15.2053C10.2404 15.2053 9.72656 15.3882 9.72656 15.8303V25.7428C9.72656 26.1686 10.2506 26.3529 10.5973 26.3529ZM11.697 16.944H13.3929C14.1497 16.944 14.6304 17.4857 14.6304 18.2248C14.6304 18.9629 14.186 19.5363 13.4083 19.5363H11.697V16.944ZM11.697 21.0916H13.4232C14.4233 21.0916 14.9055 21.7427 14.9055 22.7084V22.9523C14.9055 24.0604 14.4112 24.6146 13.4232 24.6146H11.697V21.0916Z" fill="#3179CC"/>
<path d="M20.6885 19.5544C21.3451 19.5544 21.8799 19.0197 21.8799 18.363V15.7419C21.8799 15.0857 21.3451 14.5505 20.6885 14.5505C20.0323 14.5505 19.4971 15.0857 19.4971 15.7419V18.363C19.4971 19.0197 20.0323 19.5544 20.6885 19.5544Z" fill="#3179CC"/>
<path d="M20.6885 12.1677C21.3451 12.1677 21.8799 11.633 21.8799 10.9763C21.8799 10.3201 21.3451 9.78491 20.6885 9.78491C20.0323 9.78491 19.4971 10.3201 19.4971 10.9763C19.4971 11.633 20.0323 12.1677 20.6885 12.1677Z" fill="#3179CC"/>
<path d="M13.3057 12.1644H15.9268C16.5834 12.1644 17.1182 11.6292 17.1182 10.973C17.1182 10.3164 16.5834 9.78162 15.9268 9.78162H13.3057C12.6481 9.78162 12.1143 10.3164 12.1143 10.973C12.1143 11.6292 12.6481 12.1644 13.3057 12.1644Z" fill="#3179CC"/>
<path d="M46.7031 27.5215C46.7031 28.1796 46.1698 28.7129 45.5117 28.7129C44.8537 28.7129 44.3203 28.1796 44.3203 27.5215C44.3203 26.8634 44.8537 26.3301 45.5117 26.3301C46.1698 26.3301 46.7031 26.8634 46.7031 27.5215Z" fill="#3179CC"/>
</g>
<defs>
<clipPath id="clip0">
<rect width="61" height="61" fill="white"/>
</clipPath>
</defs>
</svg>
