<svg width="81" height="81" viewBox="0 0 81 81" fill="none" xmlns="http://www.w3.org/2000/svg">
<path d="M76.9499 12.15H4.04994C1.75492 12.15 0 13.9049 0 16.2V43.2C0 45.495 1.75492 47.2499 4.04994 47.2499H76.9499C79.2449 47.2499 80.9998 45.495 80.9998 43.2V16.2C81 13.9049 79.2449 12.15 76.9499 12.15ZM78.3 43.2C78.3 44.01 77.76 44.5499 76.9501 44.5499H4.04994C3.23995 44.5499 2.70002 44.01 2.70002 43.2V16.2C2.70002 15.39 3.37506 14.85 4.04994 14.85H76.9499C77.7599 14.85 78.2998 15.39 78.2998 16.2V43.2H78.3Z" fill="#3179CC"/>
<path d="M35.0999 24.3001H45.9C46.71 24.3001 47.2499 23.7601 47.2499 22.9501C47.2499 22.1402 46.71 21.6002 45.9 21.6002H35.0999C34.2899 21.6002 33.75 22.1402 33.75 22.9501C33.75 23.7601 34.2899 24.3001 35.0999 24.3001Z" fill="#3179CC"/>
<path d="M74.2497 39.15H6.74983C5.93984 39.15 5.3999 39.69 5.3999 40.5C5.3999 41.3099 5.93984 41.8499 6.74983 41.8499H74.2497C75.0597 41.8499 75.5997 41.3099 75.5997 40.5C75.5997 39.69 75.0597 39.15 74.2497 39.15Z" fill="#3179CC"/>
<path d="M74.2497 33.75H6.74983C5.93984 33.75 5.3999 34.2899 5.3999 35.0999C5.3999 35.9099 5.93984 36.4499 6.74983 36.4499H74.2497C75.0597 36.4499 75.5997 35.9099 75.5997 35.0999C75.5997 34.2899 75.0597 33.75 74.2497 33.75Z" fill="#3179CC"/>
<path d="M41.1747 56.8349C39.8248 56.1599 39.1497 55.3499 39.1497 54.6748C39.1497 53.9998 39.9597 53.1898 41.0398 52.3798C41.7148 52.1098 41.8497 51.2998 41.5797 50.6249C41.3096 49.9499 40.4997 49.68 39.8248 50.085C37.6647 51.2999 36.4497 52.9199 36.4497 54.675C36.4497 56.4299 37.6647 58.0501 39.8248 59.4C41.1747 60.075 41.8497 60.885 41.8497 61.5601C41.8497 62.2351 41.0398 63.0451 39.8248 63.72C39.1497 63.99 38.8798 64.8 39.2848 65.4749C39.5549 65.8799 39.9599 66.1499 40.4998 66.1499C40.7699 66.1499 40.9048 66.15 41.1749 66.015C43.3349 64.8 44.5499 63.18 44.5499 61.425C44.5499 59.6699 43.3348 57.915 41.1747 56.8349Z" fill="#3179CC"/>
<path d="M26.3251 59.535C24.9752 58.8599 24.3001 58.05 24.3001 57.3749C24.3001 56.6999 25.1101 55.8899 26.1901 55.0799C26.8652 54.8098 27.1351 53.9999 26.7301 53.325C26.46 52.6499 25.65 52.38 24.9752 52.785C22.8151 54 21.6001 55.62 21.6001 57.3751C21.6001 59.13 22.8151 60.7501 24.9752 62.1001C26.3251 62.7751 27.0001 63.5851 27.0001 64.2601C27.0001 64.9352 26.1901 65.7452 24.9752 66.4202C24.3001 66.6903 24.0302 67.5002 24.4352 68.1751C24.7053 68.5801 25.1103 68.8502 25.6502 68.8502C25.9203 68.8502 26.0552 68.8502 26.3252 68.7152C28.4853 67.5002 29.7003 65.8803 29.7003 64.1252C29.7003 62.3701 28.4852 60.615 26.3251 59.535Z" fill="#3179CC"/>
<path d="M56.0248 59.535C54.6749 58.8599 53.9998 58.05 53.9998 57.3749C53.9998 56.6999 54.8098 55.8899 55.8899 55.0799C56.5649 54.8098 56.6998 53.9999 56.4298 53.325C56.1597 52.6499 55.3498 52.38 54.6749 52.785C52.5148 54 51.2998 55.62 51.2998 57.3751C51.2998 59.13 52.5148 60.7501 54.6749 62.1001C56.0248 62.7751 56.6998 63.5851 56.6998 64.2601C56.6998 64.9352 55.8899 65.7452 54.6749 66.4202C53.9998 66.6903 53.7299 67.5002 54.1349 68.1751C54.405 68.5801 54.81 68.8502 55.3499 68.8502C55.62 68.8502 55.7549 68.8502 56.025 68.7152C58.185 67.5002 59.4 65.8803 59.4 64.1252C59.4 62.3701 58.1847 60.615 56.0248 59.535Z" fill="#3179CC"/>
</svg>
