<svg width="74" height="67" viewBox="0 0 74 67" fill="none" xmlns="http://www.w3.org/2000/svg">
<path d="M70.1229 35.8929H68.8927V10.7679C68.8927 4.78567 63.9718 0 57.8207 0C52.3755 0 48.4592 3.92663 48.0211 9.68001C45.1624 10.2055 43.058 12.6 43.058 15.5535C43.058 16.2714 43.55 16.7499 44.2881 16.7499H54.13C54.8681 16.7499 55.3602 16.2714 55.3602 15.5535C55.3602 12.6326 53.3023 10.2581 50.4921 9.69753C50.8597 5.89569 53.2076 2.39277 57.8207 2.39277C62.6185 2.39277 66.4322 6.10165 66.4322 10.7677V35.8928H29.4065C28.85 33.1334 26.3966 31.1071 23.3744 31.1071C22.1442 29.6714 20.4218 28.7142 18.4535 28.7142C16.1162 28.7142 14.0247 30.0303 13.0405 31.9445C12.0563 31.466 10.9491 31.1071 9.84186 31.1071C6.81968 31.1071 4.36625 33.1334 3.80976 35.8928H3.69068C1.59925 35.8928 0 37.4481 0 39.4821C0 41.516 1.59925 43.0713 3.69068 43.0713H5.16911L8.48856 55.8732C9.47279 59.5821 12.9174 62.2143 16.8541 62.2143H17.8384L16.2391 65.3251C15.8701 65.9234 16.1162 66.6412 16.7312 66.8804C16.8541 67 17.1002 67 17.2232 67C17.7153 67 18.0843 66.7607 18.3304 66.4017L20.4833 62.2143H54.622L56.7135 66.2821C56.9596 66.7607 57.3286 67 57.8207 67C58.0668 67 58.1897 67 58.3127 66.7607C58.8048 66.5213 59.0508 65.8035 58.8048 65.2054L57.2638 62.2079C61.0725 62.0764 64.3663 59.4893 65.325 55.9928L68.6754 43.0713H70.1229C72.2143 43.0713 73.8136 41.516 73.8136 39.4821C73.8136 37.4482 72.2143 35.8929 70.1229 35.8929ZM52.7767 14.3572H45.7644C46.2565 12.9214 47.7327 11.9643 49.3321 11.9643C50.9315 11.9643 52.2847 12.9214 52.7767 14.3572ZM9.84186 33.5C10.9491 33.5 11.9333 33.9785 12.7944 34.8161C13.0405 35.175 13.5325 35.2946 14.0246 35.175C14.5166 35.0555 14.7627 34.6965 14.8857 34.2179C15.2548 32.4232 16.731 31.1071 18.5764 31.1071C19.9297 31.1071 21.1598 31.7054 21.775 32.9017C22.0211 33.3803 22.6361 33.6196 23.1283 33.5C23.2513 33.5 23.3744 33.5 23.4974 33.5C25.0966 33.5 26.4499 34.4572 26.9419 35.8929H6.39713C6.88931 34.4572 8.24247 33.5 9.84186 33.5ZM63.1106 55.2751C62.3725 57.9072 59.912 59.8216 57.0825 59.8216H16.9771C14.1476 59.8216 11.6872 57.9073 10.9491 55.2751L7.75042 43.0715H66.0631L63.1106 55.2751ZM70.1229 40.6786H67.6624H6.15118H3.69068C2.95254 40.6786 2.4605 40.2001 2.4605 39.4822C2.4605 38.7643 2.95254 38.2858 3.69068 38.2858H4.92086H28.2951H70.1229C70.861 38.2858 71.3531 38.7643 71.3531 39.4822C71.3531 40.2001 70.861 40.6786 70.1229 40.6786Z" fill="#3179CC"/>
<path d="M44.2883 22.1338C45.0264 22.1338 45.5185 21.6553 45.5185 20.9375V20.3392C45.5185 19.6213 45.0264 19.1428 44.2883 19.1428C43.5502 19.1428 43.0581 19.6213 43.0581 20.3392V20.9375C43.0581 21.6553 43.5502 22.1338 44.2883 22.1338Z" fill="#3179CC"/>
<path d="M44.2883 27.6375C45.0264 27.6375 45.5185 27.0392 45.5185 26.4411V25.125C45.5185 24.4071 45.0264 23.9286 44.2883 23.9286C43.5502 23.9286 43.0581 24.4071 43.0581 25.125V26.4411C43.0581 27.1588 43.5502 27.6375 44.2883 27.6375Z" fill="#3179CC"/>
<path d="M44.2883 32.3036C45.0264 32.3036 45.5185 31.8251 45.5185 31.1072V30.5089C45.5185 29.7911 45.0264 29.3126 44.2883 29.3126C43.5502 29.3126 43.0581 29.7911 43.0581 30.5089V31.1072C43.0581 31.8249 43.5502 32.3036 44.2883 32.3036Z" fill="#3179CC"/>
<path d="M49.2092 22.1338C49.9473 22.1338 50.4394 21.6553 50.4394 20.9375V20.3392C50.4394 19.6213 49.9473 19.1428 49.2092 19.1428C48.471 19.1428 47.979 19.6213 47.979 20.3392V20.9375C47.979 21.6553 48.471 22.1338 49.2092 22.1338Z" fill="#3179CC"/>
<path d="M47.979 26.441C47.979 27.1588 48.471 27.6374 49.2092 27.6374C49.9473 27.6374 50.4394 27.0391 50.4394 26.441V25.1249C50.4394 24.407 49.9473 23.9285 49.2092 23.9285C48.471 23.9285 47.979 24.407 47.979 25.1249V26.441Z" fill="#3179CC"/>
<path d="M47.979 31.1071C47.979 31.8249 48.471 32.3035 49.2092 32.3035C49.9473 32.3035 50.4394 31.8249 50.4394 31.1071V30.5088C50.4394 29.791 49.9473 29.3124 49.2092 29.3124C48.471 29.3124 47.979 29.791 47.979 30.5088V31.1071Z" fill="#3179CC"/>
<path d="M54.1296 22.1338C54.8677 22.1338 55.3598 21.6553 55.3598 20.9375V20.3392C55.3598 19.6213 54.8677 19.1428 54.1296 19.1428C53.3915 19.1428 52.8994 19.6213 52.8994 20.3392V20.9375C52.8993 21.6553 53.3915 22.1338 54.1296 22.1338Z" fill="#3179CC"/>
<path d="M52.8994 26.441C52.8994 27.1588 53.3915 27.6374 54.1296 27.6374C54.8677 27.6374 55.3599 27.0392 55.3599 26.441V25.1249C55.3599 24.407 54.8679 23.9285 54.1297 23.9285C53.3916 23.9285 52.8996 24.407 52.8996 25.1249V26.441H52.8994Z" fill="#3179CC"/>
<path d="M52.8994 31.1071C52.8994 31.8249 53.3915 32.3035 54.1296 32.3035C54.8677 32.3035 55.3598 31.8249 55.3598 31.1071V30.5088C55.3598 29.791 54.8677 29.3124 54.1296 29.3124C53.3915 29.3124 52.8994 29.791 52.8994 30.5088V31.1071Z" fill="#3179CC"/>
</svg>
