<svg width="85" height="85" viewBox="0 0 85 85" fill="none" xmlns="http://www.w3.org/2000/svg">
<path d="M73.0109 35.0438H71.9521V32.3111C74.6273 31.2058 76.5152 28.5697 76.5152 25.5C76.5152 22.4304 74.6273 19.7943 71.9521 18.689V12.4667C71.9521 11.8408 71.4447 11.3334 70.8188 11.3334H33.4188H23.2188C22.5929 11.3334 22.0854 11.8408 22.0854 12.4667V72.5334C22.0854 73.1593 22.5929 73.6667 23.2188 73.6667H70.8188C71.4447 73.6667 71.9521 73.1593 71.9521 72.5334V42.0527H73.0109C74.9433 42.0527 76.5155 40.4807 76.5155 38.5484C76.5155 36.6158 74.9433 35.0438 73.0109 35.0438ZM69.6854 35.0438H64.1233C62.5862 35.0438 61.2804 36.0398 60.8089 37.4193C60.7468 37.4088 60.6839 37.4 60.6188 37.4H57.2188V32.8667H69.1485C69.3293 32.8667 69.5078 32.8579 69.6854 32.8452V35.0438ZM52.7478 40.8H50.2669C49.0514 40.8 48.0626 39.8112 48.0626 38.5957V32.8667H54.9521V38.5957C54.9521 39.8112 53.9633 40.8 52.7478 40.8ZM74.2488 25.5C74.2488 28.3121 71.9609 30.6 69.1488 30.6H35.1188C32.3067 30.6 30.0188 28.3121 30.0188 25.5C30.0188 22.688 32.3067 20.4 35.1188 20.4H69.1485C71.9609 20.4 74.2488 22.688 74.2488 25.5ZM24.3521 63.4965V20.4H29.8105C28.5372 21.7249 27.7521 23.5218 27.7521 25.5C27.7521 28.5583 29.6258 31.1868 32.2854 32.2992V63.4965H24.3521ZM69.6854 18.1549C69.5081 18.1422 69.3293 18.1334 69.1485 18.1334C69.1485 18.1334 34.7391 18.143 34.5521 18.1575V13.6H69.6854V18.1549ZM32.2854 13.6V18.1334H24.3521V13.6H32.2854ZM69.6854 71.4H33.4188H24.3521V65.7631H33.4188H69.6854V71.4ZM47.4846 63.4965L44.9785 53.2667H58.041L55.5349 63.4965H47.4846ZM69.6854 63.4965H57.8685L59.5418 56.6667H62.8854C63.5113 56.6667 64.0188 56.1593 64.0188 55.5334C64.0188 54.9075 63.5113 54.4 62.8854 54.4H60.0972L60.5865 52.4031C60.6692 52.0651 60.5921 51.7078 60.3774 51.4338C60.1626 51.1601 59.8339 51 59.4857 51H43.5343C43.1861 51 42.8575 51.1599 42.6427 51.4338C42.4279 51.7078 42.3509 52.0651 42.4336 52.4031L45.1513 63.4967H34.5527V32.8429C34.74 32.8574 34.9284 32.867 35.1193 32.867H45.7965V38.596C45.7965 40.2966 46.7513 41.7778 48.1527 42.5335V44.2C48.1527 44.8259 48.6601 45.3334 49.286 45.3334C49.9119 45.3334 50.4193 44.8259 50.4193 44.2V43.0667H52.686V44.2C52.686 44.8259 53.1935 45.3334 53.8193 45.3334C54.4452 45.3334 54.9527 44.8259 54.9527 44.2V42.4808C56.0038 41.8821 56.7867 40.87 57.0842 39.6667H60.6194C60.6808 39.6667 60.74 39.6579 60.799 39.6486C61.2617 41.0429 62.576 42.0527 64.1239 42.0527H69.686V63.4965H69.6854ZM73.0109 39.786H64.1233C63.4408 39.786 62.8854 39.2309 62.8854 38.5484C62.8854 37.8658 63.4408 37.3105 64.1233 37.3105H73.0109C73.6935 37.3105 74.2488 37.8658 74.2488 38.5484C74.2488 39.2309 73.6935 39.786 73.0109 39.786Z" fill="#3179CC"/>
<path d="M34.2989 26.3155C34.8234 26.3155 35.2486 25.8903 35.2486 25.3657C35.2486 24.8412 34.8234 24.416 34.2989 24.416C33.7743 24.416 33.3491 24.8412 33.3491 25.3657C33.3491 25.8903 33.7743 26.3155 34.2989 26.3155Z" fill="#3179CC"/>
<path d="M40.8394 24.416C40.3149 24.416 39.8896 24.8413 39.8896 25.3657C39.8896 25.8902 40.3149 26.3155 40.8394 26.3155C41.3638 26.3155 41.7891 25.8902 41.7891 25.3657C41.7891 24.8413 41.3638 24.416 40.8394 24.416Z" fill="#3179CC"/>
<path d="M47.4151 24.416C46.8906 24.416 46.4653 24.8413 46.4653 25.3657C46.4653 25.8902 46.8906 26.3155 47.4151 26.3155C47.9395 26.3155 48.3648 25.8902 48.3648 25.3657C48.3648 24.8413 47.9395 24.416 47.4151 24.416Z" fill="#3179CC"/>
<path d="M58.3521 22.6667C57.7262 22.6667 57.2188 23.1742 57.2188 23.8001V27.2001C57.2188 27.8259 57.7262 28.3334 58.3521 28.3334H68.5521C69.178 28.3334 69.6854 27.8259 69.6854 27.2001V23.8001C69.6854 23.1742 69.178 22.6667 68.5521 22.6667H58.3521ZM67.4188 26.0667H59.4854V24.9334H67.4188V26.0667Z" fill="#3179CC"/>
<path d="M18.6854 71.4001H9.61868C8.9928 71.4001 8.48535 71.9075 8.48535 72.5334C8.48535 73.1593 8.9928 73.6667 9.61868 73.6667H18.6854C19.3112 73.6667 19.8187 73.1593 19.8187 72.5334C19.8187 71.9075 19.3112 71.4001 18.6854 71.4001Z" fill="#3179CC"/>
</svg>
