<svg width="65" height="65" viewBox="0 0 65 65" fill="none" xmlns="http://www.w3.org/2000/svg">
<g clip-path="url(#clip0)">
<path d="M48.3172 26.0813L52.1362 25.8388C52.1427 25.8383 52.1496 25.8378 52.1566 25.8373C54.8781 25.6073 57.321 24.1787 58.8593 21.9169L61.8784 17.4788C64.5062 13.615 65.5244 8.94833 64.7443 4.33876C64.591 3.43344 64.1289 2.59918 63.4435 1.9905C62.7577 1.38132 61.8759 1.02158 60.9605 0.977855C56.2979 0.754259 51.7975 2.32689 48.2845 5.40407L44.2487 8.93938C42.1922 10.7406 41.0695 13.3417 41.1676 16.0771C41.1681 16.0835 41.1681 16.0905 41.1686 16.0975L41.3863 19.9249C41.4711 21.4171 40.9251 22.8893 39.8912 23.9616L8.36208 56.4149C7.51804 57.2968 7.08213 58.5068 7.13519 59.822C7.19371 61.2699 7.85674 62.692 8.90907 63.6266C9.85973 64.4708 11.1665 64.9518 12.4727 64.9518C12.6125 64.9518 12.7524 64.9463 12.8917 64.9349C14.2014 64.8301 15.3485 64.2517 16.1251 63.3007L44.4947 28.0549C45.4355 26.8952 46.829 26.1757 48.3172 26.0813ZM42.9802 26.8266L14.613 62.0694C14.1796 62.6001 13.5131 62.927 12.7365 62.9891C11.8126 63.0632 10.8654 62.7551 10.2019 62.1658C9.53838 61.576 9.11983 60.6707 9.08264 59.743C9.0509 58.9634 9.29439 58.2613 9.76352 57.7714L41.2901 25.3206C42.7035 23.8553 43.4473 21.8484 43.3323 19.8141L43.1146 15.9966C43.0407 13.8555 43.9209 11.8198 45.5312 10.4092L49.5669 6.87385C52.6991 4.13057 56.713 2.72986 60.8677 2.92762C61.3408 2.95047 61.7961 3.13631 62.1507 3.45133C62.5052 3.76586 62.7438 4.19715 62.8231 4.66471C63.5184 8.77442 62.6109 12.9343 60.2682 16.3787L57.2491 20.8173C56.0445 22.5882 54.1328 23.7077 52.0023 23.891L48.1937 24.1325C46.1645 24.2617 44.2651 25.2425 42.9802 26.8266Z" fill="#3179CC"/>
<path d="M63.1998 56.1684L42.0596 36.876C41.6618 36.5128 41.0459 36.5416 40.6829 36.9401C40.3209 37.3386 40.3497 37.9562 40.7474 38.3195L61.8822 57.6074C62.385 58.073 62.6702 58.7592 62.6855 59.5393C62.7039 60.4675 62.3404 61.3961 61.7131 62.0247C61.0862 62.6527 60.1609 63.0179 59.2325 62.9991C58.4539 62.9837 57.7691 62.698 57.3094 62.1996L38.4716 41.4776C38.1091 41.0786 37.4927 41.0503 37.095 41.4131C36.6973 41.7763 36.6685 42.3939 37.031 42.7924L55.8732 63.5193C56.7014 64.4167 57.8806 64.9255 59.1943 64.9513C59.2285 64.9518 59.2623 64.9523 59.2965 64.9523C60.7083 64.9523 62.1202 64.3784 63.0907 63.4055C64.0855 62.4088 64.6622 60.9494 64.6335 59.501C64.6077 58.1848 64.1004 57.0032 63.1998 56.1684Z" fill="#3179CC"/>
<path d="M11.757 25.8964C13.3697 27.3851 15.4649 28.2338 17.6569 28.2864C17.6638 28.2869 17.6708 28.2869 17.6772 28.2869L21.5037 28.2989C22.9954 28.3033 24.429 28.9379 25.4352 30.0365L27.1208 31.8903C27.3133 32.102 27.5766 32.2093 27.8414 32.2093C28.0755 32.2093 28.3105 32.1253 28.497 31.9549C28.8952 31.5917 28.924 30.9741 28.5615 30.5756L26.8734 28.7192C25.4987 27.2177 23.5438 26.3531 21.5101 26.3461L17.6941 26.3342C15.9985 26.291 14.3774 25.6406 13.1213 24.5012L2.03217 11.2931C1.9191 11.158 1.92753 10.9622 2.05201 10.8375C2.1373 10.7515 2.23748 10.7391 2.28955 10.7391C2.34162 10.7391 2.44179 10.7515 2.52759 10.8375L12.6214 20.9515C13.6192 21.9512 15.2428 21.9512 16.2405 20.951L17.4268 19.7629V19.7624L19.5329 17.6522C19.5329 17.6522 19.5334 17.6522 19.5334 17.6517L19.5339 17.6512L20.7196 16.4632C21.7174 15.4634 21.7174 13.8366 20.7196 12.8369L10.6258 2.7234C10.4949 2.59222 10.4949 2.37807 10.6258 2.24689C10.7503 2.12217 10.9457 2.11373 11.0806 2.22701L24.2629 13.3383C25.4005 14.5964 26.0497 16.2212 26.0928 17.9195L26.1042 21.7435C26.1112 23.7807 26.9746 25.7394 28.4752 27.1198L30.2813 28.7679C30.6795 29.1311 31.2954 29.1023 31.6579 28.7038C32.02 28.3048 31.9912 27.6877 31.5935 27.3245L29.7903 25.6788C28.6909 24.6682 28.0581 23.2312 28.0532 21.7371L28.0413 17.9031C28.0413 17.8962 28.0413 17.8892 28.0408 17.8822C27.9882 15.686 27.1412 13.5867 25.6554 11.9709C25.6277 11.9405 25.5979 11.9117 25.5662 11.8849L12.3347 0.732892C11.4203 -0.0382673 10.0932 0.0193709 9.24819 0.866056C8.35703 1.75895 8.35703 3.21134 9.24819 4.10373L19.342 14.2178C19.58 14.4563 19.58 14.8443 19.342 15.0828L18.8446 15.5807L7.59481 4.30944C7.21445 3.92784 6.59754 3.92784 6.21717 4.30944C5.83681 4.69055 5.83681 5.30867 6.21717 5.68978L17.4669 16.9615L16.7379 17.6914L5.48818 6.42019C5.10782 6.03909 4.4909 6.03909 4.11054 6.42019C3.72968 6.8013 3.72968 7.41942 4.11054 7.80053L15.3598 19.0723L14.8629 19.5707C14.6249 19.8092 14.2376 19.8092 13.9995 19.5707L3.90523 9.45713C3.47379 9.02485 2.90002 8.78634 2.28955 8.78634C1.67908 8.78634 1.10531 9.02485 0.673869 9.45713C-0.171165 10.3038 -0.228195 11.6335 0.540964 12.5502L11.6717 25.807C11.698 25.8388 11.7268 25.8686 11.757 25.8964Z" fill="#3179CC"/>
</g>
<defs>
<clipPath id="clip0">
<rect width="65" height="65" fill="white"/>
</clipPath>
</defs>
</svg>
