<svg width="50" height="68" viewBox="0 0 50 68" fill="none" xmlns="http://www.w3.org/2000/svg">
<path d="M22.867 30.8C22.2779 30.8 21.8003 31.2776 21.8003 31.8667V38.2667C21.8003 38.8558 22.2779 39.3334 22.867 39.3334C23.456 39.3334 23.9336 38.8558 23.9336 38.2667V31.8667C23.9336 31.2776 23.456 30.8 22.867 30.8Z" fill="#3179CC"/>
<path d="M14.3332 27.6001H4.73317C4.1441 27.6001 3.6665 28.0777 3.6665 28.6668V40.4001C3.6665 40.9892 4.1441 41.4668 4.73317 41.4668H14.3332C14.9222 41.4668 15.3998 40.9892 15.3998 40.4001V28.6668C15.3998 28.0777 14.9222 27.6001 14.3332 27.6001ZM8.99984 29.7334H10.0665V32.4001C10.0665 32.6942 9.8273 32.9334 9.53317 32.9334C9.23904 32.9334 8.99984 32.6942 8.99984 32.4001V29.7334ZM13.2665 39.3334H5.79984V29.7334H6.8665V32.4001C6.8665 33.8705 8.06277 35.0668 9.53317 35.0668C11.0036 35.0668 12.1998 33.8705 12.1998 32.4001V29.7334H13.2665V39.3334Z" fill="#3179CC"/>
<path d="M49.5335 12.6667C49.5335 6.19682 44.27 0.93335 37.8001 0.93335C32.8353 0.93335 28.5841 4.03442 26.8735 8.40002H1.53346C0.944397 8.40002 0.466797 8.87762 0.466797 9.46668V66C0.466797 66.5891 0.944397 67.0667 1.53346 67.0667H37.8001C38.3892 67.0667 38.8668 66.5891 38.8668 66V24.3493C44.8383 23.8083 49.5335 18.7768 49.5335 12.6667ZM2.60013 64.9333V10.5333H16.4668V64.9333H2.60013ZM18.6001 64.9333V10.5333H26.2647C26.1369 11.2256 26.0668 11.9379 26.0668 12.6667C26.0668 18.7768 30.762 23.8083 36.7335 24.3493V64.9333H18.6001ZM37.8001 22.2667C32.5065 22.2667 28.2001 17.9603 28.2001 12.6667C28.2001 7.37308 32.5065 3.06668 37.8001 3.06668C43.0937 3.06668 47.4001 7.37308 47.4001 12.6667C47.4001 17.9603 43.0937 22.2667 37.8001 22.2667Z" fill="#3179CC"/>
<path d="M44.6419 12.6666L46.0211 11.2874C46.4377 10.8709 46.4377 10.1954 46.0211 9.77918C45.6046 9.36265 44.9291 9.36265 44.5126 9.77918L42.6915 11.6H40.375L41.7542 10.2208C42.1707 9.80425 42.1707 9.12878 41.7542 8.71251C41.3377 8.29598 40.6622 8.29598 40.2457 8.71251L38.8667 10.0914V7.77491L40.6878 5.95385C41.1043 5.53731 41.1043 4.86185 40.6878 4.44558C40.2713 4.02905 39.5958 4.02905 39.1793 4.44558L37.8001 5.82478L36.4211 4.44585C36.0046 4.02931 35.3291 4.02931 34.9126 4.44585C34.4961 4.86238 34.4961 5.53785 34.9126 5.95411L36.7334 7.77518V10.0917L35.3545 8.71278C34.9379 8.29625 34.2625 8.29625 33.8459 8.71278C33.4294 9.12931 33.4294 9.80478 33.8459 10.221L35.2249 11.6H32.9083L31.0875 9.77918C30.671 9.36265 29.9955 9.36265 29.579 9.77918C29.1625 10.1957 29.1625 10.8712 29.579 11.2874L30.9582 12.6666L29.579 14.0458C29.1625 14.4624 29.1625 15.1379 29.579 15.5541C29.7875 15.7624 30.0603 15.8666 30.3334 15.8666C30.6065 15.8666 30.8793 15.7624 31.0878 15.5541L32.9086 13.7333H35.2251L33.8459 15.1125C33.4294 15.529 33.4294 16.2045 33.8459 16.6208C34.0542 16.8291 34.327 16.9333 34.6001 16.9333C34.8731 16.9333 35.1459 16.8291 35.3545 16.6208L36.7334 15.2418V17.5584L34.9123 19.3794C34.4958 19.796 34.4958 20.4715 34.9123 20.8877C35.3289 21.3043 36.0043 21.3043 36.4209 20.8877L37.8001 19.5085L39.179 20.8875C39.3873 21.0957 39.6603 21.2 39.9334 21.2C40.2065 21.2 40.4793 21.0957 40.6878 20.8875C41.1043 20.4709 41.1043 19.7955 40.6878 19.3792L38.8667 17.5581V15.2416L40.2457 16.6205C40.4542 16.8291 40.727 16.9333 41.0001 16.9333C41.2731 16.9333 41.5459 16.8291 41.7545 16.6208C42.171 16.2043 42.171 15.5288 41.7545 15.1125L40.3753 13.7333H42.6918L44.5126 15.5541C44.7209 15.7624 44.9937 15.8666 45.2667 15.8666C45.5398 15.8666 45.8126 15.7624 46.0211 15.5541C46.4377 15.1376 46.4377 14.4621 46.0211 14.0458L44.6419 12.6666Z" fill="#3179CC"/>
</svg>
