<svg width="70" height="70" viewBox="0 0 70 70" fill="none" xmlns="http://www.w3.org/2000/svg">
<path d="M68.8333 14H47.8333C47.189 14 46.6667 14.5224 46.6667 15.1667V42H21V38.5C21 37.8557 20.4776 37.3333 19.8333 37.3333H16.3333V39.6667H18.6667V42H14V37.3333H11.6667V42H7V39.6667H9.33333V37.3333H5.83333C5.18905 37.3333 4.66667 37.8557 4.66667 38.5V42H1.16667C0.522379 42 0 42.5224 0 43.1667V68.8333C0 69.4776 0.522379 70 1.16667 70H68.8333C69.4776 70 70 69.4776 70 68.8333V15.1667C70 14.5224 69.4776 14 68.8333 14ZM49 16.3333H67.6667V30.3333H49V16.3333ZM46.6667 49H25.6667V44.3333H46.6667V49ZM2.33333 44.3333H23.3333V49H2.33333V44.3333ZM2.33333 51.3333H23.3333V67.6667H2.33333V51.3333ZM25.6667 51.3333H35V67.6667H25.6667V51.3333ZM37.3333 51.3333H46.6667V67.6667H37.3333V51.3333ZM49 67.6667V32.6667H67.6667V67.6667H49Z" fill="#3179CC"/>
<path d="M51.3335 21H53.6668V25.6667H51.3335V21Z" fill="#3179CC"/>
<path d="M51.3335 37.3333H53.6668V42H51.3335V37.3333Z" fill="#3179CC"/>
<path d="M7.00032 46.6667C7.00032 47.3109 6.47795 47.8333 5.83366 47.8333C5.18937 47.8333 4.66699 47.3109 4.66699 46.6667C4.66699 46.0224 5.18937 45.5 5.83366 45.5C6.47795 45.5 7.00032 46.0224 7.00032 46.6667Z" fill="#3179CC"/>
<path d="M11.6663 46.6667C11.6663 47.3109 11.144 47.8333 10.4997 47.8333C9.85539 47.8333 9.33301 47.3109 9.33301 46.6667C9.33301 46.0224 9.85539 45.5 10.4997 45.5C11.144 45.5 11.6663 46.0224 11.6663 46.6667Z" fill="#3179CC"/>
<path d="M16.3333 46.6667C16.3333 47.3109 15.811 47.8333 15.1667 47.8333C14.5224 47.8333 14 47.3109 14 46.6667C14 46.0224 14.5224 45.5 15.1667 45.5C15.811 45.5 16.3333 46.0224 16.3333 46.6667Z" fill="#3179CC"/>
<path d="M20.9998 46.6667C20.9998 47.3109 20.4775 47.8333 19.8332 47.8333C19.1889 47.8333 18.6665 47.3109 18.6665 46.6667C18.6665 46.0224 19.1889 45.5 19.8332 45.5C20.4775 45.5 20.9998 46.0224 20.9998 46.6667Z" fill="#3179CC"/>
<path d="M1.16667 22.1667H24.5C25.1443 22.1667 25.6667 21.6443 25.6667 21V17.5C25.6667 17.1907 25.5436 16.8939 25.3249 16.6751L20.6582 12.0085C20.4395 11.7897 20.1427 11.6667 19.8333 11.6667H18.6667V1.16667C18.6667 0.522379 18.1443 0 17.5 0H8.16667C7.52238 0 7 0.522379 7 1.16667V11.6667H5.83333C5.52401 11.6667 5.22721 11.7897 5.00846 12.0085L0.341797 16.6751C0.123047 16.8939 0 17.1907 0 17.5V21C0 21.6443 0.52238 22.1667 1.16667 22.1667ZM9.33333 2.33333H16.3333V11.6667H9.33333V2.33333ZM2.33333 17.9831L6.31641 14H19.3503L23.3333 17.9831V19.8333H2.33333V17.9831Z" fill="#3179CC"/>
<path d="M19.8337 53.6667H5.83366C5.18937 53.6667 4.66699 54.189 4.66699 54.8333V64.1667C4.66699 64.8109 5.18937 65.3333 5.83366 65.3333H19.8337C20.4779 65.3333 21.0003 64.8109 21.0003 64.1667V54.8333C21.0003 54.189 20.4779 53.6667 19.8337 53.6667ZM18.667 63H7.00033V56H18.667V63Z" fill="#3179CC"/>
<path d="M33.8335 45.5H38.5002V47.8333H33.8335V45.5Z" fill="#3179CC"/>
<path d="M30.333 57.1667H32.6663V61.8333H30.333V57.1667Z" fill="#3179CC"/>
<path d="M39.667 57.1667H42.0003V61.8333H39.667V57.1667Z" fill="#3179CC"/>
<path d="M27.9997 29.1667H34.9997C35.644 29.1667 36.1663 28.6443 36.1663 28V26.8333C36.1584 24.7119 34.7205 22.8628 32.6663 22.3324V0H30.333V22.3324C28.2788 22.8628 26.841 24.7119 26.833 26.8333V28C26.833 28.6443 27.3554 29.1667 27.9997 29.1667ZM31.4997 24.5C32.7882 24.5 33.833 25.5448 33.833 26.8333H29.1663C29.1663 25.5448 30.2111 24.5 31.4997 24.5Z" fill="#3179CC"/>
<path d="M36.1667 19.8333H43.1667C43.811 19.8333 44.3333 19.311 44.3333 18.6667V17.5C44.3254 15.3786 42.8875 13.5295 40.8333 12.9991V0H38.5V12.9991C36.4458 13.5295 35.008 15.3786 35 17.5V18.6667C35 19.311 35.5224 19.8333 36.1667 19.8333ZM39.6667 15.1667C40.9552 15.1667 42 16.2114 42 17.5H37.3333C37.3333 16.2114 38.3781 15.1667 39.6667 15.1667Z" fill="#3179CC"/>
</svg>
