<svg width="67" height="69" viewBox="0 0 67 69" fill="none" xmlns="http://www.w3.org/2000/svg">
<path d="M62.9554 3.76495H4.04474C1.8145 3.76495 0 5.63362 0 7.93043V49.8182C0 52.115 1.8145 53.9837 4.04474 53.9837H24.2311V57.0146C24.2311 59.7931 22.0361 62.0536 19.3382 62.0536H14.8893C14.0364 62.0536 13.3448 62.7657 13.3448 63.6443C13.3448 64.5228 14.0364 65.2349 14.8893 65.2349H52.1105C52.9635 65.2349 53.6551 64.5228 53.6551 63.6443C53.6551 62.7657 52.9635 62.0536 52.1105 62.0536H47.6616C44.9636 62.0536 42.7686 59.7931 42.7686 57.0146V53.9838H62.955C65.1852 53.9838 66.9999 52.1152 66.9999 49.8184V7.93043C67.0001 5.63362 65.1856 3.76495 62.9554 3.76495ZM25.638 62.0539C26.6909 60.6609 27.3205 58.9128 27.3205 57.0149V53.984H39.6798V57.0149C39.6798 58.9128 40.3093 60.6611 41.3622 62.0539H25.638ZM63.9111 49.8184C63.9111 50.3611 63.4824 50.8027 62.9553 50.8027H4.04474C3.51777 50.8027 3.08894 50.3612 3.08894 49.8184V41.4584H63.9111V49.8184ZM63.9111 38.277H3.08907V7.93043C3.08907 7.38773 3.51777 6.9461 4.04487 6.9461H62.9553C63.4822 6.9461 63.9112 7.3876 63.9112 7.93043V38.277H63.9111Z" fill="#3179CC"/>
<path d="M33.5004 47.8477C34.421 47.8477 35.1673 47.0791 35.1673 46.131C35.1673 45.1829 34.421 44.4144 33.5004 44.4144C32.5798 44.4144 31.8335 45.1829 31.8335 46.131C31.8335 47.0791 32.5798 47.8477 33.5004 47.8477Z" fill="#3179CC"/>
<path d="M36.1485 14.7237C35.5452 14.1026 34.5676 14.1026 33.9641 14.7237L23.0485 25.9651C22.4454 26.5862 22.4454 27.5934 23.0485 28.2147C23.3503 28.5253 23.7454 28.6806 24.1408 28.6806C24.5363 28.6806 24.9314 28.5253 25.233 28.2147L36.1485 16.9734C36.7516 16.3522 36.7516 15.345 36.1485 14.7237Z" fill="#3179CC"/>
<path d="M42.6184 21.2382C42.0154 20.617 41.0378 20.617 40.4341 21.238L36.0856 25.716C35.4825 26.3373 35.4825 27.3445 36.0856 27.9657C36.3873 28.2763 36.7825 28.4316 37.1778 28.4316C37.573 28.4316 37.9683 28.2763 38.27 27.9657L42.6184 23.4877C43.2216 22.8665 43.2216 21.8593 42.6184 21.2382Z" fill="#3179CC"/>
</svg>
