<svg width="67" height="65" viewBox="0 0 67 65" fill="none" xmlns="http://www.w3.org/2000/svg">
<path d="M56.0038 10.3545H52.7335C52.2453 10.3545 51.9362 10.6545 51.9362 10.986H51.936V21.2461C51.936 21.6723 52.4567 21.8933 52.9936 21.8933C53.5143 21.8933 54.0512 21.6724 54.0512 21.2461V17.5841H55.8737C58.0214 17.5841 59.6973 16.5895 59.6973 14.0008V13.9062C59.6973 11.3174 58.0702 10.3545 56.0038 10.3545ZM57.5819 14.1588C57.5819 15.3899 56.9312 15.9741 55.8736 15.9741H54.0512V12.154H55.8736C56.9312 12.154 57.5819 12.7382 57.5819 13.9693V14.1588Z" fill="#3179CC"/>
<path d="M38.3507 14.3656C35.2619 11.369 31.1553 9.71875 26.7871 9.71875C22.4189 9.71875 18.3123 11.369 15.2235 14.3656C14.8506 14.7272 14.8506 15.3134 15.2235 15.6751C15.5961 16.0367 16.2005 16.0367 16.5731 15.6751C19.3014 13.0284 22.9287 11.5707 26.7869 11.5707C30.6452 11.5707 34.2726 13.0284 37.0007 15.6751C37.1872 15.8559 37.4315 15.9463 37.6757 15.9463C37.9199 15.9463 38.1642 15.8559 38.3507 15.6751C38.7234 15.3136 38.7234 14.7272 38.3507 14.3656Z" fill="#3179CC"/>
<path d="M34.4133 18.1858C30.2083 14.1063 23.3663 14.1063 19.1614 18.1858C18.7886 18.5473 18.7886 19.1337 19.1614 19.4953C19.5341 19.8569 20.1386 19.8569 20.5113 19.4953C23.972 16.138 29.6028 16.138 33.0635 19.4953C33.2499 19.6761 33.494 19.7665 33.7384 19.7665C33.9825 19.7665 34.2269 19.6761 34.4133 19.4953C34.786 19.1337 34.786 18.5473 34.4133 18.1858Z" fill="#3179CC"/>
<path d="M30.5377 21.9453C28.4696 19.9389 25.1045 19.9389 23.0364 21.9453C22.6636 22.3068 22.6636 22.8931 23.0364 23.2548C23.4091 23.6165 24.0136 23.6163 24.3863 23.2548C25.7102 21.9705 27.8641 21.9705 29.188 23.2548C29.3743 23.4357 29.6186 23.5259 29.8628 23.5259C30.107 23.5259 30.3513 23.4356 30.5377 23.2548C30.9105 22.8931 30.9105 22.3069 30.5377 21.9453Z" fill="#3179CC"/>
<path d="M46.9679 39.98C46.5549 39.7595 46.1474 39.5181 45.7569 39.2621L39.4436 35.1245C37.5276 33.8687 35.2925 33.205 32.9803 33.205H21.3926C18.3167 33.205 15.4227 34.3649 13.2434 36.4711C12.1232 37.5538 10.8471 38.4595 9.45041 39.1631C8.62443 39.5792 8.11133 40.3982 8.11133 41.3005C8.11133 42.6292 9.22546 43.71 10.595 43.71H14.5457C15.0728 43.71 15.5001 43.2954 15.5001 42.784C15.5001 42.2727 15.0728 41.858 14.5457 41.858H10.595C10.2781 41.858 10.0202 41.6078 10.0202 41.3003C10.0202 41.092 10.1389 40.9029 10.33 40.8066C11.8992 40.0162 13.3327 38.9988 14.5905 37.783C16.4095 36.025 18.8251 35.0568 21.3925 35.0568H23.9867V41.858H20.8158C20.2887 41.858 19.8613 42.2727 19.8613 42.784C19.8613 43.2954 20.2887 43.71 20.8158 43.71H46.9873C47.7719 43.71 48.4102 43.0908 48.4102 42.3295C48.4102 41.3548 47.8575 40.4545 46.9679 39.98ZM25.896 41.8582V35.0569H32.9804C34.9104 35.0569 36.776 35.611 38.3752 36.6591L44.6885 40.7967C45.1268 41.084 45.5842 41.3552 46.0482 41.6027C46.1684 41.6669 46.269 41.755 46.3446 41.8582H25.896Z" fill="#3179CC"/>
<path d="M28.2616 45.1172H25.3134C24.7863 45.1172 24.3589 45.5319 24.3589 46.0432C24.3589 46.5546 24.7863 46.9692 25.3134 46.9692H28.2616C28.7887 46.9692 29.2161 46.5546 29.2161 46.0432C29.2161 45.5319 28.7887 45.1172 28.2616 45.1172Z" fill="#3179CC"/>
<path d="M66.1765 44.3403L65.875 43.8548C64.7388 42.0255 62.8488 40.7375 60.6897 40.3208L58.2255 39.8454V27.7281H64.6025C65.9156 27.7281 66.9836 26.6918 66.9836 25.4181V7.38437C66.9836 6.11053 65.9154 5.07434 64.6025 5.07434H46.0139C44.7009 5.07434 43.6328 6.11065 43.6328 7.38437V14.2252C43.6328 14.7366 44.06 15.1512 44.5873 15.1512C45.1145 15.1512 45.5418 14.7366 45.5418 14.2252V7.38437C45.5418 7.13173 45.7536 6.9262 46.014 6.9262H64.6028C64.8632 6.9262 65.0751 7.13173 65.0751 7.38437V25.4182C65.0751 25.6709 64.8632 25.8764 64.6028 25.8764H46.0139C45.7535 25.8764 45.5416 25.6709 45.5416 25.4182V20.2451C45.5416 19.7337 45.1144 19.3191 44.5871 19.3191C44.0599 19.3191 43.6327 19.7337 43.6327 20.2451V25.4182C43.6327 26.6921 44.7009 27.7283 46.0138 27.7283H53.2452V38.8847L51.9784 38.6404C50.2302 38.303 48.5257 37.2794 47.3956 36.5387L41.0825 32.4011C38.6806 30.8271 35.879 29.995 32.9805 29.995H21.3929C17.5372 29.995 13.9094 31.449 11.178 34.089C9.44958 35.7596 7.27392 36.8989 4.88614 37.3842L3.51578 37.6626C1.47857 38.0764 0 39.8426 0 41.8619V50.8298C0 51.8995 0.651023 52.8716 1.65877 53.3061L5.46048 54.9453C5.6904 56.1116 6.26958 57.2253 7.19841 58.1264C8.43281 59.324 10.0543 59.9228 11.6759 59.9228C13.2975 59.9228 14.9188 59.324 16.1533 58.1264C16.9473 57.3562 17.4843 56.4304 17.7676 55.4494H49.4663C49.7497 56.4304 50.2868 57.3562 51.0808 58.1264C52.2768 59.2867 53.8667 59.9257 55.5582 59.9257C57.2496 59.9257 58.8398 59.2868 60.0358 58.1264C60.8297 57.3562 61.3668 56.4304 61.6501 55.4494H63.4608C65.4123 55.4494 67 53.9091 67 52.0158V47.213C66.9997 46.2006 66.715 45.2074 66.1765 44.3403ZM55.1541 27.7281H56.3167V39.4771L55.1541 39.2528V27.7281ZM14.8034 56.8171C13.968 57.6275 12.8573 58.0739 11.6757 58.0739C10.4942 58.0739 9.3835 57.6275 8.54809 56.8171C7.20797 55.5169 6.90987 53.5836 7.65236 52.001C7.65838 51.9883 7.66414 51.9755 7.67016 51.9628C7.6928 51.9158 7.71675 51.8693 7.74122 51.8231C7.75273 51.8013 7.76425 51.7796 7.77629 51.758C7.7984 51.7179 7.82143 51.678 7.84499 51.6384C7.86121 51.6111 7.87783 51.5841 7.89471 51.5572C7.91657 51.5222 7.93868 51.4875 7.96171 51.4531C7.98252 51.4219 8.00398 51.3912 8.0257 51.3606C8.04716 51.3303 8.06849 51.2998 8.09074 51.27C8.11626 51.2358 8.14282 51.2023 8.16952 51.1688C8.19032 51.1427 8.21061 51.1162 8.23207 51.0905C8.26348 51.0528 8.29632 51.016 8.32903 50.9791C8.34775 50.9582 8.36567 50.9367 8.38478 50.916C8.43346 50.8636 8.48358 50.8122 8.53514 50.7618C8.53959 50.7575 8.54364 50.7529 8.54809 50.7486C8.55791 50.7391 8.56824 50.7302 8.57819 50.7208C8.6219 50.6791 8.66587 50.638 8.71075 50.5985C8.7224 50.5883 8.7347 50.5787 8.74647 50.5686C8.79123 50.5301 8.83624 50.4919 8.88231 50.4555C8.88662 50.452 8.8912 50.4489 8.89552 50.4454C10.5133 49.1753 12.8467 49.1768 14.4625 50.4505C14.4644 50.452 14.4663 50.4533 14.4683 50.4548C14.5176 50.4938 14.5659 50.5347 14.6139 50.5761C14.6226 50.5834 14.6315 50.5904 14.64 50.5979C14.6954 50.6465 14.7499 50.6967 14.8033 50.7485C14.8609 50.8043 14.9163 50.8618 14.9703 50.9201C14.9939 50.9458 15.0163 50.972 15.0392 50.9981C15.0672 51.0298 15.0954 51.0617 15.1223 51.094C15.1525 51.1305 15.1817 51.1675 15.2105 51.2046C15.2267 51.2253 15.2428 51.2461 15.2585 51.2671C15.2935 51.3138 15.3275 51.361 15.3603 51.4089C15.366 51.417 15.3715 51.4253 15.377 51.4334C16.4997 53.0971 16.3087 55.3566 14.8034 56.8171ZM58.6857 56.8171C57.8502 57.6275 56.7395 58.0739 55.558 58.0739C54.3764 58.0739 53.2658 57.6275 52.4304 56.8171C50.9249 55.3566 50.7338 53.0967 51.8567 51.4331C51.8621 51.4251 51.8675 51.4171 51.873 51.4093C51.9058 51.3613 51.94 51.3139 51.975 51.2669C51.9906 51.2461 52.0066 51.2256 52.0227 51.2051C52.0516 51.1678 52.0809 51.1306 52.1114 51.0939C52.1382 51.0618 52.166 51.0303 52.1938 50.9988C52.217 50.9725 52.2396 50.9459 52.2636 50.9201C52.3175 50.8618 52.373 50.8045 52.4306 50.7486C53.266 49.9381 54.3766 49.4918 55.5581 49.4918C56.7396 49.4918 57.8503 49.9381 58.6857 50.7486C58.7433 50.8045 58.7988 50.862 58.8527 50.9202C58.8765 50.9459 58.8989 50.9723 58.9219 50.9984C58.95 51.03 58.978 51.0618 59.0048 51.094C59.0351 51.1306 59.0643 51.1677 59.0932 51.2049C59.1093 51.2256 59.1254 51.2462 59.1411 51.2672C59.1761 51.314 59.2102 51.3611 59.2429 51.409C59.2486 51.4171 59.2541 51.4253 59.2596 51.4334C60.3821 53.097 60.191 55.3567 58.6857 56.8171ZM65.0912 52.0158H65.0909C65.0909 52.888 64.3595 53.5975 63.4605 53.5975H61.8892C61.8517 52.2545 61.3631 50.9732 60.4837 49.9226C60.4779 49.9155 60.4722 49.9082 60.4662 49.9011C60.4118 49.8367 60.3554 49.7736 60.2981 49.7109C60.2834 49.6949 60.2695 49.6784 60.2547 49.6624C60.194 49.5975 60.1312 49.5339 60.0674 49.4712C60.0565 49.4605 60.0465 49.4494 60.0356 49.4388C59.2132 48.6412 58.2047 48.0898 57.1051 47.8232C56.6052 47.702 56.0866 47.6396 55.558 47.6396C55.1352 47.6396 54.7186 47.6796 54.313 47.7576C53.0961 47.9917 51.9775 48.5687 51.0805 49.4388C51.0698 49.4492 51.0599 49.4602 51.0493 49.4707C50.9852 49.5338 50.9222 49.5975 50.8613 49.6626C50.8469 49.678 50.8336 49.694 50.8194 49.7095C50.7616 49.7727 50.7045 49.8364 50.6497 49.9014C50.6442 49.9079 50.6391 49.9146 50.6336 49.9212C49.7536 50.9719 49.2644 52.254 49.2269 53.5977H18.0068C17.9693 52.2523 17.4791 50.9687 16.5968 49.9172C16.5928 49.9122 16.5888 49.9073 16.5848 49.9023C16.5272 49.834 16.4674 49.7671 16.4066 49.7009C16.3953 49.6887 16.3848 49.6761 16.3735 49.6639C16.3021 49.5876 16.2289 49.5125 16.1531 49.4389C15.8445 49.1396 15.5116 48.8776 15.1608 48.653C14.1079 47.9794 12.8918 47.6426 11.6757 47.6426C10.0543 47.6426 8.43268 48.2414 7.19828 49.4389C7.12775 49.5074 7.05957 49.5776 6.99284 49.6487C6.97308 49.6697 6.9541 49.6912 6.9346 49.7124C6.88749 49.7641 6.84117 49.8163 6.79602 49.8691C6.776 49.8926 6.75598 49.9162 6.73635 49.94C6.68964 49.9965 6.6441 50.0537 6.5996 50.1114C6.58573 50.1294 6.57147 50.1471 6.55799 50.1652C6.43839 50.3241 6.32742 50.4878 6.22482 50.6558C6.22195 50.6605 6.2192 50.6653 6.21632 50.67C6.1662 50.7527 6.11818 50.8364 6.07224 50.9211C6.07093 50.9235 6.06963 50.9261 6.06819 50.9285C5.73541 51.5428 5.51164 52.2073 5.40905 52.8965L2.43424 51.6138C2.1152 51.4762 1.9091 51.1684 1.9091 50.8298V41.8619C1.9091 40.7141 2.74961 39.7103 3.90758 39.4749L5.27793 39.1965C8.02858 38.6376 10.5348 37.325 12.5257 35.4008C14.8968 33.1089 18.0461 31.8467 21.3933 31.8467H32.9809C35.4972 31.8467 37.9292 32.5691 40.0143 33.9355L46.3274 38.073C47.5943 38.9034 49.5199 40.0539 51.6064 40.4565L60.3177 42.1371C61.9511 42.4524 63.3807 43.4267 64.2403 44.8105L64.5418 45.296C64.9013 45.8745 65.0912 46.5374 65.0912 47.213V52.0158Z" fill="#3179CC"/>
<path d="M13.7247 51.7949C13.1772 51.2639 12.4496 50.9715 11.6756 50.9715C10.9015 50.9715 10.1738 51.264 9.62658 51.7949C9.07933 52.3258 8.77783 53.0318 8.77783 53.7827C8.77783 54.5337 9.07933 55.2396 9.62658 55.7706C10.1738 56.3015 10.9015 56.594 11.6757 56.594C12.4497 56.594 13.1774 56.3016 13.7247 55.7706C14.8545 54.6745 14.8545 52.891 13.7247 51.7949ZM12.3748 54.461C12.188 54.6422 11.9396 54.742 11.6756 54.742C11.4114 54.742 11.1631 54.6422 10.9764 54.4609C10.7897 54.2798 10.6867 54.0389 10.6867 53.7826C10.6867 53.5263 10.7895 53.2855 10.9764 53.1043C11.1631 52.9231 11.4114 52.8232 11.6756 52.8232C11.9396 52.8232 12.188 52.923 12.3748 53.1043C12.7603 53.4784 12.7603 54.087 12.3748 54.461Z" fill="#3179CC"/>
<path d="M57.6066 51.795C57.0594 51.264 56.3317 50.9715 55.5575 50.9715C54.7835 50.9715 54.0559 51.2639 53.5084 51.7949C52.3787 52.891 52.3787 54.6745 53.5084 55.7706C54.0558 56.3016 54.7835 56.594 55.5575 56.594C56.3317 56.594 57.0593 56.3016 57.6065 55.7707C58.1539 55.2398 58.4553 54.5338 58.4553 53.7829C58.4553 53.0319 58.1539 52.326 57.6066 51.795ZM56.2567 54.4612C56.07 54.6423 55.8217 54.7421 55.5575 54.7421C55.2935 54.7421 55.0451 54.6423 54.8583 54.4612C54.4728 54.0872 54.4728 53.4786 54.8583 53.1046C55.0451 52.9234 55.2935 52.8235 55.5575 52.8235C55.8217 52.8235 56.07 52.9233 56.2568 53.1046C56.4436 53.2857 56.5464 53.5265 56.5464 53.7829C56.5464 54.0389 56.4437 54.2799 56.2567 54.4612Z" fill="#3179CC"/>
</svg>
