<svg width="66" height="66" viewBox="0 0 66 66" fill="none" xmlns="http://www.w3.org/2000/svg">
<path d="M63.6966 27.8514C63.1385 26.2818 61.3715 21.8979 57.7052 17.4704C55.0657 14.2829 51.9867 11.7414 48.5533 9.91623C45.7755 8.43962 42.7629 7.43712 39.5549 6.91118C39.2862 4.15853 36.9593 2 34.1373 2C31.3162 2 28.9899 4.15724 28.7201 6.9086C25.7587 7.39393 22.9644 8.28712 20.3696 9.58236C17.0128 11.2579 13.9761 13.6085 11.3436 16.5689C10.5143 17.5014 11.9587 18.7869 12.7884 17.854C17.3922 12.6766 23.0968 9.61034 29.7875 8.70026C29.7924 8.69962 29.7972 8.69975 29.8021 8.69897C35.8283 7.87565 42.2031 8.74164 47.6072 11.6031C50.8121 13.3 53.6931 15.6705 56.1704 18.6487C59.1729 22.2582 60.8569 25.9101 61.593 27.763H6.68118C7.26874 26.282 8.46073 23.6533 10.4443 20.8227C11.1564 19.8067 9.58156 18.6847 8.86111 19.7128C6.33739 23.3139 5.0415 26.5515 4.57847 27.8513C3.25732 28.1769 2.27454 29.3712 2.27454 30.7914C2.27454 32.4612 3.63308 33.8196 5.30292 33.8196H19.9029L11.452 44.6913H0.966793C0.432865 44.6913 0 45.1241 0 45.6581C0 45.6581 0 62.3583 0 62.4313C0 62.7127 0.12839 62.9711 0.328452 63.1499C0.500283 63.3036 0.725095 63.3983 0.966793 63.3983C1.00456 63.3983 1.04246 63.3961 1.08036 63.3916L12.0386 62.0959C12.5253 62.0384 12.8919 61.6257 12.8919 61.1358V57.5446L35.8477 51.8741C36.5546 51.7437 37.197 51.4076 37.7078 50.9009C37.7199 50.8889 37.7316 50.8767 37.7431 50.864L49.4521 37.9504C50.5613 36.8325 50.7753 35.1542 50.0916 33.8196H62.9716C64.6415 33.8196 66 32.4611 66 30.7914C66 29.3713 65.0173 28.1771 63.6966 27.8514ZM37.2392 6.61702C35.9095 6.49765 34.5734 6.45498 33.2389 6.48888C32.5392 6.50642 31.8406 6.54767 31.1432 6.60761C31.0017 6.61985 30.8594 6.63042 30.7188 6.64434C31.0815 5.09258 32.4765 3.93359 34.1372 3.93359C35.7979 3.93359 37.1929 5.09258 37.5557 6.64434C37.4509 6.6339 37.3446 6.62643 37.2392 6.61702ZM10.9581 60.2766L1.93359 61.3437V46.6248H10.9581V60.2766ZM48.0705 36.5975C48.0585 36.6095 48.0467 36.6218 48.0353 36.6343L36.3296 49.5442C36.0952 49.7707 35.8018 49.9197 35.4799 49.9758C35.4577 49.9796 35.4358 49.9843 35.414 49.9895L12.8917 55.5529V45.9896C12.8917 45.9896 21.9984 34.2743 22.0073 34.2628C22.5378 33.5809 23.721 33.7487 24.2675 34.2915C24.8289 34.8492 24.9087 35.7238 24.4574 36.3712C24.3676 36.5001 19.3993 44.1341 19.3934 44.1434C18.9802 44.7781 19.4566 45.633 20.2066 45.633H33.9543C34.2094 45.633 34.4542 45.5322 34.6353 45.3526C34.6353 45.3526 45.7694 34.3034 45.7817 34.2911C46.4112 33.6663 47.4552 33.671 48.0793 34.2999C48.7103 34.9358 48.7063 35.9665 48.0705 36.5975ZM26.2863 33.8196H31.9062L22.0252 43.6252C22.0252 43.6252 25.9512 37.6097 26.0436 37.4771C26.8146 36.3712 26.8763 34.9649 26.2863 33.8196ZM27.7531 43.6995H24.6955L34.1763 34.2911C34.4825 33.9872 34.8889 33.8197 35.3206 33.8197C35.9356 33.8197 36.5177 34.1838 36.7833 34.7383L27.7531 43.6995ZM39.9788 34.2911C40.2852 33.9872 40.6915 33.8197 41.1231 33.8197C41.741 33.8197 42.3191 34.1814 42.5859 34.7383L33.5558 43.6996H30.4982L39.9788 34.2911ZM62.9714 31.886H5.30292C4.69926 31.886 4.20813 31.395 4.20813 30.7914C4.20813 30.1877 4.69926 29.6967 5.30292 29.6967H62.9714C63.575 29.6967 64.0662 30.1878 64.0662 30.7914C64.0662 31.3949 63.575 31.886 62.9714 31.886Z" fill="#3179CC"/>
</svg>
