<svg width="72" height="80" viewBox="0 0 72 80" fill="none" xmlns="http://www.w3.org/2000/svg">
<path d="M70.5766 35.2472C71.3253 35.2472 71.9323 34.6402 71.9323 33.8916V1.35566C71.9323 0.607003 71.3253 0 70.5766 0C64.7105 0 55.6644 4.6581 55.6644 10.8453V12.201H27.1955C23.4535 12.2056 20.4218 15.2373 20.4171 18.9793V25.4392C19.0641 26.64 18.1513 28.2584 17.8223 30.0377C9.62149 31.2676 3.38796 38.0492 2.85046 46.3242C0.96326 46.9563 -0.185875 48.8641 0.136492 50.8281C0.459521 52.792 2.15939 54.2318 4.1492 54.2265H44.8191C46.8089 54.2318 48.5087 52.792 48.8318 50.8281C49.1541 48.8641 48.005 46.9563 46.1178 46.3242C45.5803 38.0492 39.3468 31.2676 31.1459 30.0377C30.817 28.2584 29.9041 26.64 28.5511 25.4392V20.3349H55.6644V24.4019C55.6644 30.5891 64.7105 35.2472 70.5766 35.2472ZM58.3757 10.8453C58.3757 6.91401 64.6277 3.42424 69.221 2.80731V32.4399C64.6277 31.823 58.3757 28.3332 58.3757 24.4019V10.8453ZM28.3069 29.8246H20.6614C21.1195 28.4484 22.1521 27.1132 23.1285 27.1132H25.8398C26.8201 27.1132 27.8488 28.4484 28.3069 29.8246ZM44.8191 51.5152H4.1492C3.40054 51.5152 2.79354 50.9082 2.79354 50.1595C2.79354 49.4108 3.40054 48.8038 4.1492 48.8038H44.8191C45.5677 48.8038 46.1747 49.4108 46.1747 50.1595C46.1747 50.9082 45.5677 51.5152 44.8191 51.5152ZM43.4025 46.0925H5.56576C6.27603 38.4179 12.7101 32.5452 20.4171 32.5359H28.5511C36.2581 32.5452 42.6922 38.4179 43.4025 46.0925ZM27.1955 17.6236C26.4468 17.6236 25.8398 18.2306 25.8398 18.9793V24.4019H23.1285V18.9793C23.1285 16.7333 24.9495 14.9123 27.1955 14.9123H55.6644V17.6236H27.1955Z" fill="#3179CC"/>
<path d="M6.86074 58.2934C6.86074 57.5447 6.25374 56.9377 5.50508 56.9377C4.75642 56.9377 4.14941 57.5447 4.14941 58.2934V59.6491C4.14941 60.3977 4.75642 61.0047 5.50508 61.0047C6.25374 61.0047 6.86074 60.3977 6.86074 59.6491V58.2934Z" fill="#3179CC"/>
<path d="M12.2831 58.2934C12.2831 57.5447 11.6761 56.9377 10.9274 56.9377C10.1788 56.9377 9.57178 57.5447 9.57178 58.2934V66.4274C9.57178 67.176 10.1788 67.783 10.9274 67.783C11.6761 67.783 12.2831 67.176 12.2831 66.4274V58.2934Z" fill="#3179CC"/>
<path d="M17.706 58.2934C17.706 57.5447 17.099 56.9377 16.3503 56.9377C15.6016 56.9377 14.9946 57.5447 14.9946 58.2934V59.6491C14.9946 60.3977 15.6016 61.0047 16.3503 61.0047C17.099 61.0047 17.706 60.3977 17.706 59.6491V58.2934Z" fill="#3179CC"/>
<path d="M23.1283 58.2934C23.1283 57.5447 22.5213 56.9377 21.7727 56.9377C21.024 56.9377 20.417 57.5447 20.417 58.2934V66.4274C20.417 67.176 21.024 67.783 21.7727 67.783C22.5213 67.783 23.1283 67.176 23.1283 66.4274V58.2934Z" fill="#3179CC"/>
<path d="M28.5512 58.2934C28.5512 57.5447 27.9442 56.9377 27.1955 56.9377C26.4468 56.9377 25.8398 57.5447 25.8398 58.2934V59.6491C25.8398 60.3977 26.4468 61.0047 27.1955 61.0047C27.9442 61.0047 28.5512 60.3977 28.5512 59.6491V58.2934Z" fill="#3179CC"/>
<path d="M33.9735 58.2934C33.9735 57.5447 33.3665 56.9377 32.6179 56.9377C31.8692 56.9377 31.2622 57.5447 31.2622 58.2934V66.4274C31.2622 67.176 31.8692 67.783 32.6179 67.783C33.3665 67.783 33.9735 67.176 33.9735 66.4274V58.2934Z" fill="#3179CC"/>
<path d="M39.3969 58.2934C39.3969 57.5447 38.7899 56.9377 38.0412 56.9377C37.2925 56.9377 36.6855 57.5447 36.6855 58.2934V59.6491C36.6855 60.3977 37.2925 61.0047 38.0412 61.0047C38.7899 61.0047 39.3969 60.3977 39.3969 59.6491V58.2934Z" fill="#3179CC"/>
<path d="M10.9274 70.4944C10.1788 70.4944 9.57178 71.1014 9.57178 71.85V75.917C9.57178 76.6657 10.1788 77.2727 10.9274 77.2727C11.6761 77.2727 12.2831 76.6657 12.2831 75.917V71.85C12.2831 71.1014 11.6761 70.4944 10.9274 70.4944Z" fill="#3179CC"/>
<path d="M21.7727 70.4944C21.024 70.4944 20.417 71.1014 20.417 71.85V75.917C20.417 76.6657 21.024 77.2727 21.7727 77.2727C22.5213 77.2727 23.1283 76.6657 23.1283 75.917V71.85C23.1283 71.1014 22.5213 70.4944 21.7727 70.4944Z" fill="#3179CC"/>
<path d="M32.6179 70.4944C31.8692 70.4944 31.2622 71.1014 31.2622 71.85V75.917C31.2622 76.6657 31.8692 77.2727 32.6179 77.2727C33.3665 77.2727 33.9735 76.6657 33.9735 75.917V71.85C33.9735 71.1014 33.3665 70.4944 32.6179 70.4944Z" fill="#3179CC"/>
<path d="M43.4631 70.4944C42.7144 70.4944 42.1074 71.1014 42.1074 71.85V75.917C42.1074 76.6657 42.7144 77.2727 43.4631 77.2727C44.2118 77.2727 44.8188 76.6657 44.8188 75.917V71.85C44.8188 71.1014 44.2118 70.4944 43.4631 70.4944Z" fill="#3179CC"/>
<path d="M44.8188 58.2934C44.8188 57.5447 44.2118 56.9377 43.4631 56.9377C42.7144 56.9377 42.1074 57.5447 42.1074 58.2934V66.4274C42.1074 67.176 42.7144 67.783 43.4631 67.783C44.2118 67.783 44.8188 67.176 44.8188 66.4274V58.2934Z" fill="#3179CC"/>
<path d="M6.86074 65.0718C6.86074 64.3232 6.25374 63.7162 5.50508 63.7162C4.75642 63.7162 4.14941 64.3232 4.14941 65.0718V73.2058C4.14941 73.9545 4.75642 74.5615 5.50508 74.5615C6.25374 74.5615 6.86074 73.9545 6.86074 73.2058V65.0718Z" fill="#3179CC"/>
<path d="M17.706 65.0718C17.706 64.3232 17.099 63.7162 16.3503 63.7162C15.6016 63.7162 14.9946 64.3232 14.9946 65.0718V73.2058C14.9946 73.9545 15.6016 74.5615 16.3503 74.5615C17.099 74.5615 17.706 73.9545 17.706 73.2058V65.0718Z" fill="#3179CC"/>
<path d="M28.5512 65.0718C28.5512 64.3232 27.9442 63.7162 27.1955 63.7162C26.4468 63.7162 25.8398 64.3232 25.8398 65.0718V73.2058C25.8398 73.9545 26.4468 74.5615 27.1955 74.5615C27.9442 74.5615 28.5512 73.9545 28.5512 73.2058V65.0718Z" fill="#3179CC"/>
<path d="M39.3969 65.0718C39.3969 64.3232 38.7899 63.7162 38.0412 63.7162C37.2925 63.7162 36.6855 64.3232 36.6855 65.0718V73.2058C36.6855 73.9545 37.2925 74.5615 38.0412 74.5615C38.7899 74.5615 39.3969 73.9545 39.3969 73.2058V65.0718Z" fill="#3179CC"/>
<path d="M6.01997 77.3661C5.76975 77.2695 5.49703 77.2463 5.23358 77.3C5.15083 77.3165 5.06941 77.3383 4.98998 77.3661C4.90591 77.4072 4.82383 77.4522 4.7444 77.5018C4.67423 77.5522 4.60672 77.6064 4.54251 77.6647C4.4227 77.7964 4.32671 77.948 4.25787 78.1122C4.18175 78.273 4.14468 78.4504 4.14931 78.6285C4.14269 79.1805 4.47168 79.681 4.98071 79.8948C5.48909 80.1079 6.07689 79.9914 6.46612 79.6002C6.85534 79.209 6.96853 78.6212 6.75208 78.1135C6.68654 77.9473 6.5899 77.7957 6.46744 77.666C6.3324 77.5469 6.18148 77.4462 6.01997 77.3661Z" fill="#3179CC"/>
<path d="M15.3879 77.6659C15.2654 77.7956 15.1688 77.9472 15.1033 78.1133C14.8868 78.6177 15 79.2029 15.3879 79.5908C15.5176 79.7133 15.6692 79.8099 15.8354 79.8754C16.3398 80.0919 16.9249 79.9794 17.3128 79.5908C17.7014 79.2029 17.8139 78.6177 17.5975 78.1133C17.5286 77.9492 17.4326 77.7976 17.3128 77.6659C16.7694 77.1641 15.9313 77.1641 15.3879 77.6659Z" fill="#3179CC"/>
<path d="M27.9409 77.5031C27.8688 77.4508 27.7913 77.4058 27.7106 77.3674C27.6265 77.3383 27.5398 77.3158 27.4517 77.3012C27.1936 77.2483 26.9255 77.2714 26.6806 77.3674C26.5184 77.4475 26.3681 77.5481 26.2331 77.6673C26.1106 77.797 26.014 77.9486 25.9485 78.1147C25.732 78.6191 25.8452 79.2043 26.2331 79.5922C26.3648 79.712 26.5164 79.808 26.6806 79.8768C27.185 80.0933 27.7701 79.9807 28.158 79.5922C28.5466 79.2043 28.6591 78.6191 28.4427 78.1147C28.3738 77.9506 28.2779 77.799 28.158 77.6673C28.0912 77.6057 28.019 77.5508 27.9409 77.5031Z" fill="#3179CC"/>
<path d="M37.0781 77.6659C36.9557 77.7956 36.859 77.9472 36.7935 78.1133C36.7174 78.2742 36.6803 78.4503 36.685 78.6283C36.6816 78.9891 36.8233 79.336 37.0781 79.5908C37.2099 79.7106 37.3615 79.8066 37.5256 79.8754C37.9426 80.0542 38.4212 80.0105 38.7985 79.7589C39.1758 79.5074 39.4009 79.0818 39.3963 78.6283C39.4002 78.4503 39.3632 78.2742 39.2877 78.1133C39.2189 77.9492 39.1229 77.7976 39.0031 77.6659C38.4596 77.1641 37.6216 77.1641 37.0781 77.6659Z" fill="#3179CC"/>
</svg>
