<svg width="65" height="65" viewBox="0 0 65 65" fill="none" xmlns="http://www.w3.org/2000/svg">
<g clip-path="url(#clip0)">
<path d="M18.4165 58.5001C18.4215 60.8224 19.6652 62.9653 21.6786 64.1222C23.6925 65.2787 26.1701 65.2737 28.1785 64.1079C30.1874 62.9425 31.4218 60.7942 31.4163 58.4718C31.4198 57.4696 31.3206 56.4693 31.1207 55.4874C30.0506 50.3305 30.0506 14.6695 31.1207 9.51256C31.3221 8.52123 31.4208 7.51156 31.4163 6.4999C31.4163 2.91 28.5063 0 24.9164 0C21.3265 0 18.4165 2.91 18.4165 6.4999C18.416 7.52098 18.5187 8.53958 18.723 9.53983C19.7902 14.6899 19.7902 50.3101 18.723 55.4602C18.5187 56.4604 18.416 57.479 18.4165 58.5001ZM20.8455 9.09996C20.6694 8.24451 20.5817 7.3732 20.5831 6.4999C20.5906 4.53014 21.9256 2.81281 23.8333 2.32037V6.4999C23.8333 7.09846 24.3183 7.58347 24.9164 7.58347C25.515 7.58347 26 7.09846 26 6.4999V2.32037C27.9152 2.81876 29.2517 4.54899 29.2497 6.52817C29.2531 7.38262 29.1688 8.23559 28.9987 9.07269C27.9087 14.3283 27.9087 50.6731 28.9987 55.9273C29.1703 56.7738 29.2546 57.6362 29.2497 58.5001C29.2427 60.4699 27.9072 62.1872 26 62.6796V58.5001C26 57.9015 25.515 57.4165 24.9164 57.4165C24.3183 57.4165 23.8333 57.9015 23.8333 58.5001V62.6796C21.9256 62.1872 20.5906 60.4699 20.5831 58.5001C20.5817 57.6268 20.6694 56.7555 20.8455 55.9C21.9762 50.4336 21.9762 14.5664 20.8455 9.09996Z" fill="#3179CC"/>
<path d="M24.9166 40.0835C25.5151 40.0835 26.0001 39.5985 26.0001 38.9999V27.0832C26.0001 26.4851 25.5151 26.0001 24.9166 26.0001C24.3185 26.0001 23.8335 26.4851 23.8335 27.0832V38.9999C23.8335 39.5985 24.3185 40.0835 24.9166 40.0835Z" fill="#3179CC"/>
<path d="M26.0001 22.7499C26.0001 23.3484 25.5151 23.8334 24.9166 23.8334C24.3185 23.8334 23.8335 23.3484 23.8335 22.7499C23.8335 22.1518 24.3185 21.6668 24.9166 21.6668C25.5151 21.6668 26.0001 22.1518 26.0001 22.7499Z" fill="#3179CC"/>
<path d="M26.0001 43.3332C26.0001 43.9318 25.5151 44.4168 24.9166 44.4168C24.3185 44.4168 23.8335 43.9318 23.8335 43.3332C23.8335 42.7351 24.3185 42.2501 24.9166 42.2501C25.5151 42.2501 26.0001 42.7351 26.0001 43.3332Z" fill="#3179CC"/>
<path d="M33.5835 58.5001C33.5909 62.09 36.5074 64.9936 40.0973 64.9861C43.6872 64.9782 46.5912 62.0617 46.5833 58.4718C46.5863 57.4696 46.4871 56.4693 46.2877 55.4874C45.2171 50.3305 45.2171 14.6695 46.2877 9.51256C46.4886 8.52123 46.5878 7.51156 46.5833 6.4999C46.5833 2.91 43.6733 0 40.0834 0C36.4935 0 33.5835 2.91 33.5835 6.4999C33.5825 7.52098 33.6852 8.53958 33.89 9.53983C34.9572 14.6899 34.9572 50.3101 33.89 55.4602C33.6852 56.4604 33.5825 57.479 33.5835 58.5001ZM36.012 9.09996C35.8364 8.24451 35.7486 7.3732 35.7501 6.4999C35.7571 4.53014 37.0926 2.81281 38.9998 2.32037V6.4999C38.9998 7.09846 39.4848 7.58347 40.0834 7.58347C40.6815 7.58347 41.1665 7.09846 41.1665 6.4999V2.32037C43.0822 2.81876 44.4187 4.54899 44.4167 6.52817C44.4197 7.38262 44.3353 8.23559 44.1652 9.07269C43.0752 14.3283 43.0752 50.6731 44.1652 55.9273C44.3368 56.7738 44.4211 57.6362 44.4167 58.5001C44.4092 60.4699 43.0742 62.1872 41.1665 62.6796V58.5001C41.1665 57.9015 40.6815 57.4165 40.0834 57.4165C39.4848 57.4165 38.9998 57.9015 38.9998 58.5001V62.6796C37.0926 62.1872 35.7571 60.4699 35.7501 58.5001C35.7486 57.6268 35.8364 56.7555 36.012 55.9C37.1432 50.4336 37.1432 14.5664 36.012 9.09996Z" fill="#3179CC"/>
<path d="M40.0836 40.0835C40.6816 40.0835 41.1666 39.5985 41.1666 38.9999V27.0832C41.1666 26.4851 40.6816 26.0001 40.0836 26.0001C39.485 26.0001 39 26.4851 39 27.0832V38.9999C39 39.5985 39.485 40.0835 40.0836 40.0835Z" fill="#3179CC"/>
<path d="M41.1666 22.7499C41.1666 23.3484 40.6816 23.8334 40.0836 23.8334C39.485 23.8334 39 23.3484 39 22.7499C39 22.1518 39.485 21.6668 40.0836 21.6668C40.6816 21.6668 41.1666 22.1518 41.1666 22.7499Z" fill="#3179CC"/>
<path d="M41.1666 43.3332C41.1666 43.9318 40.6816 44.4168 40.0836 44.4168C39.485 44.4168 39 43.9318 39 43.3332C39 42.7351 39.485 42.2501 40.0836 42.2501C40.6816 42.2501 41.1666 42.7351 41.1666 43.3332Z" fill="#3179CC"/>
<path d="M3.03349 17.3336C4.25789 17.3336 5.36278 16.5971 5.83389 15.467L8.6591 8.68389L8.66653 16.2584C8.67149 17.4466 9.63158 18.4092 10.8193 18.4166V59.5832H8.65265C8.05408 59.5832 7.56908 60.0682 7.56908 60.6667C7.56908 61.2648 8.05408 61.7498 8.65265 61.7498H10.8193V63.9164C10.8193 64.515 11.3043 65 11.9024 65C12.5009 65 12.9859 64.515 12.9859 63.9164V61.7498H15.1525C15.7511 61.7498 16.2361 61.2648 16.2361 60.6667C16.2361 60.0682 15.7511 59.5832 15.1525 59.5832H12.9859V18.4166H14.0834C15.28 18.4166 16.25 17.4466 16.25 16.25C16.2525 15.2755 15.9425 14.3264 15.3648 13.5418C15.2021 13.1758 15.2111 12.7563 15.3896 12.3978C15.8805 11.4104 15.8805 10.25 15.3896 9.26262C15.2021 8.88523 15.2021 8.44189 15.3896 8.0645C15.8825 7.07516 15.8825 5.91175 15.3896 4.92291L15.2969 4.73743C15.1476 4.44435 15.1119 4.10664 15.1957 3.78826L15.5349 2.97695C15.8072 2.31194 15.7308 1.55518 15.3311 0.957604C14.9309 0.360528 14.2604 0.00148854 13.5418 8.0686e-07H10.8138C10.2396 -0.000495104 9.68861 0.227624 9.28345 0.63427C8.87779 1.04092 8.65116 1.59237 8.65364 2.16663H3.03349C1.3583 2.16663 0 3.52493 0 5.20012V14.3001C0 15.9753 1.3583 17.3336 3.03349 17.3336ZM13.5339 2.15374L13.1689 3.03894C12.8728 3.92017 12.9408 4.88373 13.3583 5.71438L13.4516 5.90183C13.64 6.27922 13.64 6.72306 13.4516 7.09995C12.9621 8.08781 12.9621 9.24774 13.4516 10.2351C13.64 10.6125 13.64 11.0563 13.4516 11.4337C12.9621 12.4206 12.9621 13.5795 13.4516 14.5664C13.4734 14.6095 13.4972 14.6507 13.5235 14.6909C13.8845 15.1302 14.0824 15.6812 14.0834 16.25H10.8292L10.8158 3.42972C10.8347 3.31665 10.8347 3.2011 10.8158 3.08754V2.16663L13.5339 2.15374ZM2.16663 5.20012C2.16663 4.72157 2.55493 4.33327 3.03349 4.33327H8.125L3.83389 14.6323C3.67569 15.0147 3.26954 15.2314 2.86388 15.1506C2.45823 15.0697 2.16614 14.7137 2.16663 14.3001V5.20012Z" fill="#3179CC"/>
<path d="M61.9667 2.16663H56.3465C56.349 1.59237 56.1223 1.04092 55.7167 0.63427C55.3115 0.227624 54.7606 -0.000495104 54.1863 8.0686e-07H51.4583C50.7367 8.0686e-07 50.0633 0.360528 49.6626 0.96058C49.2624 1.56113 49.1885 2.32185 49.4662 2.98786L49.7762 3.72429C49.8872 4.06151 49.861 4.42848 49.7033 4.74587L49.6105 4.93134C49.1196 5.91869 49.1196 7.07912 49.6105 8.06648C49.798 8.44387 49.798 8.88721 49.6105 9.2646C49.1196 10.252 49.1196 11.4124 49.6105 12.3997C49.79 12.7613 49.798 13.1843 49.6319 13.5527C49.2093 14.3338 48.9167 15.1788 48.7655 16.0541C48.7541 16.1186 48.7491 16.1845 48.7501 16.25C48.7501 17.4466 49.7201 18.4166 50.9168 18.4166H52.0142V59.5832H49.8476C49.249 59.5832 48.764 60.0682 48.764 60.6667C48.764 61.2648 49.249 61.7498 49.8476 61.7498H52.0142V63.9164C52.0142 64.515 52.4992 65 53.0978 65C53.6958 65 54.1808 64.515 54.1808 63.9164V61.7498H56.3475C56.946 61.7498 57.4311 61.2648 57.4311 60.6667C57.4311 60.0682 56.946 59.5832 56.3475 59.5832H54.1808V18.4166C55.3686 18.4092 56.3286 17.4466 56.3336 16.2584L56.34 8.68488L59.1653 15.4679C59.7202 16.8049 61.1429 17.5632 62.5622 17.279C63.9815 16.9949 65.0026 15.7476 65.0001 14.3001V5.20012C65.0001 3.52493 63.6418 2.16663 61.9667 2.16663ZM51.5486 11.4312C51.3601 11.0543 51.3601 10.6105 51.5486 10.2331C52.038 9.24526 52.038 8.08582 51.5486 7.09797C51.3616 6.72256 51.3616 6.2817 51.5486 5.9063L51.6418 5.71884C52.0668 4.8624 52.1248 3.86959 51.803 2.96951L51.4583 2.16663L54.1799 2.16019V3.11234C54.167 3.21152 54.167 3.31169 54.1799 3.41038V16.25H50.9386C51.0407 15.7055 51.2237 15.1788 51.4801 14.6879C51.5059 14.6477 51.5292 14.6066 51.5505 14.5644C52.039 13.577 52.038 12.4181 51.5486 11.4312ZM62.8335 14.3001C62.8345 14.7137 62.5424 15.0702 62.1368 15.1516C61.7311 15.2329 61.3245 15.0157 61.1663 14.6338L56.8751 4.33327H61.9667C62.4452 4.33327 62.8335 4.72157 62.8335 5.20012V14.3001Z" fill="#3179CC"/>
</g>
<defs>
<clipPath id="clip0">
<rect width="65" height="65" fill="white"/>
</clipPath>
</defs>
</svg>
