<svg width="80" height="80" viewBox="0 0 80 80" fill="none" xmlns="http://www.w3.org/2000/svg">
<g clip-path="url(#clip0)">
<path d="M62.3872 43.3752C62.3605 42.4527 61.9509 41.5727 61.2636 40.9605C55.4169 35.7555 47.8655 32.8889 39.9999 32.8889C32.1343 32.8889 24.5829 35.7555 18.7362 40.9605C18.049 41.5723 17.6395 42.4523 17.6127 43.3747C17.5857 44.3028 17.9466 45.2116 18.6032 45.868L25.0287 52.2934C26.2788 53.5433 28.2401 53.6286 29.5912 52.4914C32.4896 50.0508 36.1863 48.7069 39.9999 48.707C43.8138 48.707 47.5103 50.0512 50.4088 52.4914C51.0442 53.0267 51.8146 53.2912 52.5828 53.2912C53.4475 53.2911 54.3092 52.9558 54.9714 52.2937L61.3967 45.8683C62.053 45.2119 62.4141 44.3033 62.3872 43.3752ZM52.5866 49.9059L52.586 49.9056C49.0789 46.9528 44.6091 45.3267 39.9999 45.3267C35.3908 45.3267 30.9207 46.9531 27.4188 49.9033L20.984 43.4853C26.211 38.8322 32.9643 36.2695 40 36.2695C47.0358 36.2695 53.7891 38.8322 59.0066 43.4778L52.5866 49.9059Z" fill="#3179CC"/>
<path d="M45.0301 59.8449C43.6867 58.5015 41.9005 57.7615 40.0006 57.7615C38.1008 57.7615 36.3144 58.5015 34.9709 59.8447C32.1978 62.6183 32.1978 67.1307 34.9711 69.9039C36.3576 71.2905 38.1794 71.9838 40.0006 71.9838C41.8219 71.9838 43.6434 71.2907 45.03 69.9039C46.3734 68.5607 47.1134 66.7743 47.1134 64.8744C47.1134 62.9744 46.3734 61.1882 45.0301 59.8449ZM42.6397 67.514C41.1847 68.9693 38.8166 68.9693 37.3612 67.514C35.9058 66.0585 35.9058 63.6905 37.3612 62.2352C38.0662 61.5301 39.0036 61.1419 40.0006 61.1419C40.9975 61.1419 41.9348 61.5302 42.6398 62.2352C42.6398 62.2354 42.6398 62.2354 42.64 62.2354C43.345 62.9404 43.7331 63.8777 43.7331 64.8747C43.7331 65.8716 43.3448 66.8091 42.6397 67.514Z" fill="#3179CC"/>
<path d="M78.9292 23.3934C57.1 2.89046 22.9005 2.8903 1.07105 23.3932C0.395111 24.0279 0.0151118 24.8871 0.000424372 25.8129C-0.0139506 26.7351 0.337299 27.6021 0.989172 28.254L7.40182 34.6667C8.69244 35.9573 10.7495 35.9977 12.0848 34.7591C19.6793 27.7126 29.593 23.8318 40.0002 23.8318C50.407 23.8318 60.3209 27.7126 67.9154 34.7591C68.5654 35.3626 69.3867 35.6624 70.2073 35.6624C71.072 35.6624 71.9362 35.3291 72.5986 34.6668L79.0112 28.2542C79.6632 27.6023 80.0143 26.7353 80 25.8131C79.9851 24.8874 79.6051 24.0281 78.9292 23.3934ZM70.2148 32.2813C61.9931 24.6526 51.2628 20.4515 40.0003 20.4515C28.7377 20.4515 18.0074 24.6528 9.79228 32.2763L3.38526 25.8573C23.9174 6.57295 56.0836 6.57358 76.6153 25.8574L76.6209 25.8639L70.2148 32.2813Z" fill="#3179CC"/>
</g>
<defs>
<clipPath id="clip0">
<rect width="80" height="80" fill="white"/>
</clipPath>
</defs>
</svg>
