<svg width="65" height="65" viewBox="0 0 65 65" fill="none" xmlns="http://www.w3.org/2000/svg">
<g clip-path="url(#clip0)">
<path d="M61.2092 14.0814H56.8757C56.2774 14.0814 55.7924 14.5665 55.7924 15.1648V16.2482C55.7924 15.6499 55.3073 15.1648 54.709 15.1648H51.4589C50.8874 15.1636 50.4133 15.6064 50.3755 16.1767L50.3007 17.3316H48.2087V15.1648C48.2087 14.5665 47.7237 14.0814 47.1254 14.0814H42.7919C42.1936 14.0814 41.7085 14.5665 41.7085 15.1648V21.6651C41.7085 22.2633 42.1936 22.7484 42.7919 22.7484H47.1254C47.7237 22.7484 48.2087 22.2633 48.2087 21.6651V19.4983H50.1588L49.5673 28.3614C49.4703 29.4806 48.5305 30.338 47.407 30.332H40.6251V29.8673C40.6235 29.45 40.3824 29.0709 40.0054 28.8922C38.5383 28.2069 36.9827 27.7292 35.3838 27.473C35.2101 27.4481 35.0332 27.466 34.8681 27.525C34.2717 27.3433 33.6605 27.2142 33.0415 27.1393V24.1839C33.3627 24.0196 33.6739 23.8361 33.9732 23.6346C37.6133 21.0876 40.6251 18.5298 40.6251 13.0251V11.9147C40.6198 8.62055 39.2563 5.47457 36.8561 3.21844C32.6329 -0.707973 26.2171 -1.0839 21.5642 2.32249C16.8586 1.47584 12.3575 4.60422 11.5108 9.30999C11.4205 9.81213 11.3747 10.3212 11.374 10.8313V27.0819C11.374 27.6802 11.8591 28.1653 12.4574 28.1653C16.5998 28.1723 20.5847 26.5782 23.5793 23.7159C23.8362 23.8853 24.1016 24.0414 24.3745 24.1839V27.1393C23.7554 27.2127 23.1438 27.3403 22.5469 27.5207C22.3822 27.4618 22.2055 27.4439 22.0323 27.4687C20.4333 27.7249 18.8777 28.2025 17.4106 28.8879C17.0336 29.0665 16.7925 29.4457 16.7909 29.8629V29.8987C12.694 34.5009 10.3871 40.4219 10.2906 46.5827C10.2906 49.5544 10.4326 52.9746 11.3123 55.2496H9.20728V53.0829C9.20728 52.4846 8.72219 51.9995 8.1239 51.9995H3.79041C3.19211 51.9995 2.70703 52.4846 2.70703 53.0829V59.5831C2.70703 60.1814 3.19211 60.6665 3.79041 60.6665H8.1239C8.72219 60.6665 9.20728 60.1814 9.20728 59.5831V57.4164H15.4009C14.1858 59.76 13.5481 62.3601 13.5408 65H15.7075C15.7131 63.1362 16.081 61.2914 16.7909 59.568V59.5831C16.7909 60.1814 17.276 60.6665 17.8743 60.6665H22.2078C22.8061 60.6665 23.2911 60.1814 23.2911 59.5831V55.2496H36.855L37.479 56.0297C39.5122 58.5778 40.6213 61.7401 40.6251 65H42.7919C42.7871 61.2483 41.5104 57.609 39.1702 54.6765L38.3414 53.6408L37.9254 52.3928C36.917 49.3633 37.0133 46.0747 38.1973 43.1094L38.2579 42.9577C39.6024 42.5365 40.5452 41.3265 40.6251 39.9199V39.8755L52.3678 37.3599C54.3608 36.9232 55.7838 35.162 55.7924 33.1217V21.6651C55.7924 22.2633 56.2774 22.7484 56.8757 22.7484H61.2092C61.8075 22.7484 62.2926 22.2633 62.2926 21.6651V15.1648C62.2926 14.5665 61.8075 14.0814 61.2092 14.0814ZM46.042 20.5817H43.8752V16.2482H46.042V20.5817ZM7.04053 58.4998H4.87378V54.1663H7.04053V58.4998ZM15.4356 54.7925L15.5114 55.2529H13.713C13.0944 54.3916 12.4574 52.1534 12.4574 46.5827C12.5472 41.8108 14.0558 37.1738 16.7909 33.2626V39.8419C15.3619 43.079 14.8874 51.5012 15.4356 54.7925ZM28.058 2.18491C33.196 1.83877 37.7153 5.55244 38.3717 10.6601L32.4424 7.69495C32.2347 7.59054 31.9985 7.55627 31.7696 7.59744L19.183 9.81836C20.0734 5.5588 23.7132 2.42812 28.058 2.18491ZM13.5408 25.9574V10.8313C13.5451 7.47597 16.1001 4.67423 19.4408 4.3614C17.7131 6.49836 16.7769 9.16671 16.7909 11.9147V13.0251C16.7909 17.6728 18.9414 20.2177 21.8004 22.4321C19.5133 24.489 16.6083 25.7289 13.5408 25.9574ZM18.9576 13.0251V12.0588L31.7945 9.79344L38.453 13.1227C38.4215 17.1571 36.5787 19.1657 32.7317 21.8601C30.3134 23.5438 27.1026 23.5438 24.6844 21.8601C20.8048 19.143 18.9576 17.129 18.9576 13.0251ZM23.2911 29.5423C23.9972 29.3487 24.7258 29.25 25.4579 29.2487C26.0562 29.2487 26.5413 28.7636 26.5413 28.1653V25.0051C27.961 25.3829 29.455 25.3829 30.8748 25.0051V28.1653C30.8748 28.7636 31.3598 29.2487 31.9581 29.2487C32.6902 29.25 33.4188 29.3487 34.1249 29.5423V31.2757L28.708 32.4403L23.2911 31.2757V29.5423ZM17.3965 52.1219C17.33 48.8827 17.6101 45.6455 18.2318 42.4658C18.514 42.6611 18.8179 42.8228 19.1375 42.9479C20.2297 45.8586 20.2768 49.058 19.2707 51.9995H17.8743C17.7076 52.0021 17.5438 52.0441 17.3965 52.1219ZM21.1244 58.4998H18.9576V54.1663H21.1244V58.4998ZM23.2911 53.0829C23.2911 52.4846 22.8061 51.9995 22.2078 51.9995H21.5577C22.3777 49.1687 22.3777 46.1634 21.5577 43.3325H35.8149C34.7977 46.5061 34.817 49.9211 35.8702 53.0829H23.2911ZM38.4584 39.9199C38.4584 40.5082 37.5321 41.1658 36.2916 41.1658H21.1244C19.8839 41.1658 18.9576 40.5082 18.9576 39.9199V30.5726C19.6609 30.2822 20.3853 30.0458 21.1244 29.8651V32.1543C21.1243 32.6651 21.4808 33.1066 21.9803 33.2138L28.4805 34.6125C28.6304 34.6452 28.7856 34.6452 28.9355 34.6125L35.4358 33.2138C35.9352 33.1066 36.2918 32.6651 36.2916 32.1543V29.864C37.0308 30.0447 37.7551 30.2811 38.4584 30.5715V39.9199ZM51.9128 35.2408L40.6251 37.6589V32.4988H47.407C49.6611 32.5057 51.5416 30.7781 51.7254 28.5315L52.4729 17.3316H53.6256V33.1217C53.6217 34.1421 52.9098 35.0231 51.9128 35.2408ZM60.1259 20.5817H57.9591V16.2482H60.1259V20.5817Z" fill="#3179CC"/>
</g>
<defs>
<clipPath id="clip0">
<rect width="65" height="65" fill="white"/>
</clipPath>
</defs>
</svg>
